<svg xmlns="http://www.w3.org/2000/svg" xmlns:xlink="http://www.w3.org/1999/xlink" width="1023.999" height="1023.999" viewBox="220 220 9799.989 9799.989" fill-rule="evenodd"><defs><radialGradient cx="9576.978" cy="5624.241" r="167" fx="9576.978" fy="5624.241" id="aB" xlink:href="#a" gradientUnits="userSpaceOnUse" gradientTransform="matrix(.95617 0 0 .95617 19.77 19.77)"/><radialGradient xlink:href="#a" id="B" gradientUnits="userSpaceOnUse" cx="5913.978" cy="584.241" fx="5913.978" fy="584.241" r="167" gradientTransform="matrix(.95617 0 0 .95617 19.77 19.77)"/><radialGradient cx="4131.978" cy="613.241" r="167" fx="4131.978" fy="613.241" id="v" xlink:href="#a" gradientUnits="userSpaceOnUse" gradientTransform="matrix(.95617 0 0 .95617 19.77 19.77)"/><radialGradient cx="4425.978" cy="558.241" r="167" fx="4425.978" fy="558.241" id="w" xlink:href="#a" gradientUnits="userSpaceOnUse" gradientTransform="matrix(.95617 0 0 .95617 19.77 19.77)"/><radialGradient cx="4722.978" cy="524.241" r="167" fx="4722.978" fy="524.241" id="x" xlink:href="#a" gradientUnits="userSpaceOnUse" gradientTransform="matrix(.95617 0 0 .95617 19.77 19.77)"/><radialGradient cx="5020.978" cy="509.241" r="167" fx="5020.978" fy="509.241" id="y" xlink:href="#a" gradientUnits="userSpaceOnUse" gradientTransform="matrix(.95617 0 0 .95617 19.77 19.77)"/><radialGradient cx="5319.978" cy="514.241" r="167" fx="5319.978" fy="514.241" id="z" xlink:href="#a" gradientUnits="userSpaceOnUse" gradientTransform="matrix(.95617 0 0 .95617 19.77 19.77)"/><radialGradient cx="5618.978" cy="539.241" r="167" fx="5618.978" fy="539.241" id="A" xlink:href="#a" gradientUnits="userSpaceOnUse" gradientTransform="matrix(.95617 0 0 .95617 19.77 19.77)"/><radialGradient cx="6206.978" cy="647.241" r="167" fx="6206.978" fy="647.241" id="C" xlink:href="#a" gradientUnits="userSpaceOnUse" gradientTransform="matrix(.95617 0 0 .95617 19.77 19.77)"/><radialGradient cx="3011.978" cy="1014.05" r="167" fx="3011.978" fy="1019.241" id="D" xlink:href="#a" gradientUnits="userSpaceOnUse" gradientTransform="matrix(.95617 0 0 .95617 19.77 19.77)"/><radialGradient cx="3280.978" cy="890.241" r="167" fx="3280.978" fy="890.241" id="E" xlink:href="#a" gradientUnits="userSpaceOnUse" gradientTransform="matrix(.95617 0 0 .95617 19.77 19.77)"/><radialGradient cx="3558.978" cy="778.241" r="167" fx="3558.978" fy="778.241" id="F" xlink:href="#a" gradientUnits="userSpaceOnUse" gradientTransform="matrix(.95617 0 0 .95617 19.77 19.77)"/><radialGradient cx="3841.978" cy="686.241" r="167" fx="3841.978" fy="686.241" id="G" xlink:href="#a" gradientUnits="userSpaceOnUse" gradientTransform="matrix(.95617 0 0 .95617 19.77 19.77)"/><radialGradient cx="2035.978" cy="1703.241" r="167" fx="2035.978" fy="1703.241" id="H" xlink:href="#a" gradientUnits="userSpaceOnUse" gradientTransform="matrix(.95617 0 0 .95617 19.77 19.77)"/><radialGradient cx="2261.978" cy="1507.241" r="167" fx="2261.978" fy="1507.241" id="I" xlink:href="#a" gradientUnits="userSpaceOnUse" gradientTransform="matrix(.95617 0 0 .95617 19.77 19.77)"/><radialGradient cx="2500.978" cy="1328.241" r="167" fx="2500.978" fy="1328.241" id="J" xlink:href="#a" gradientUnits="userSpaceOnUse" gradientTransform="matrix(.95617 0 0 .95617 19.77 19.77)"/><radialGradient cx="2750.978" cy="1164.241" r="167" fx="2750.978" fy="1164.241" id="K" xlink:href="#a" gradientUnits="userSpaceOnUse" gradientTransform="matrix(.95617 0 0 .95617 19.77 19.77)"/><radialGradient cx="1440.978" cy="2372.241" r="167" fx="1440.978" fy="2372.241" id="L" xlink:href="#a" gradientUnits="userSpaceOnUse" gradientTransform="matrix(.95617 0 0 .95617 19.77 19.77)"/><radialGradient cx="1622.978" cy="2136.241" r="167" fx="1622.978" fy="2136.241" id="M" xlink:href="#a" gradientUnits="userSpaceOnUse" gradientTransform="matrix(.95617 0 0 .95617 19.77 19.77)"/><radialGradient cx="1821.978" cy="1913.241" r="167" fx="1821.978" fy="1913.241" id="N" xlink:href="#a" gradientUnits="userSpaceOnUse" gradientTransform="matrix(.95617 0 0 .95617 19.77 19.77)"/><radialGradient cx="638.978" cy="5771.241" r="167" fx="638.978" fy="5771.241" id="O" xlink:href="#a" gradientUnits="userSpaceOnUse" gradientTransform="matrix(.95617 0 0 .95617 19.77 19.77)"/><radialGradient cx="9371.978" cy="3560.241" r="167" fx="9371.978" fy="3560.241" id="bm" xlink:href="#a" gradientUnits="userSpaceOnUse" gradientTransform="matrix(.95617 0 0 .95617 19.77 19.77)"/><radialGradient cx="9264.978" cy="3281.241" r="167" fx="9264.978" fy="3281.241" id="bl" xlink:href="#a" gradientUnits="userSpaceOnUse" gradientTransform="matrix(.95617 0 0 .95617 19.77 19.77)"/><radialGradient cx="9139.978" cy="3009.241" r="167" fx="9139.978" fy="3009.241" id="bk" xlink:href="#a" gradientUnits="userSpaceOnUse" gradientTransform="matrix(.95617 0 0 .95617 19.77 19.77)"/><radialGradient cx="8996.978" cy="2746.241" r="167" fx="8996.978" fy="2746.241" id="bj" xlink:href="#a" gradientUnits="userSpaceOnUse" gradientTransform="matrix(.95617 0 0 .95617 19.77 19.77)"/><radialGradient cx="8837.978" cy="2494.241" r="167" fx="8837.978" fy="2494.241" id="bi" xlink:href="#a" gradientUnits="userSpaceOnUse" gradientTransform="matrix(.95617 0 0 .95617 19.77 19.77)"/><radialGradient cx="8662.978" cy="2251.241" r="167" fx="8662.978" fy="2251.241" id="bh" xlink:href="#a" gradientUnits="userSpaceOnUse" gradientTransform="matrix(.95617 0 0 .95617 19.77 19.77)"/><radialGradient cx="8471.978" cy="2023.241" r="167" fx="8471.978" fy="2023.241" id="bg" xlink:href="#a" gradientUnits="userSpaceOnUse" gradientTransform="matrix(.95617 0 0 .95617 19.77 19.77)"/><radialGradient cx="8264.978" cy="1806.241" r="167" fx="8264.978" fy="1806.241" id="bf" xlink:href="#a" gradientUnits="userSpaceOnUse" gradientTransform="matrix(.95617 0 0 .95617 19.77 19.77)"/><radialGradient cx="8044.978" cy="1604.241" r="167" fx="8044.978" fy="1604.241" id="be" xlink:href="#a" gradientUnits="userSpaceOnUse" gradientTransform="matrix(.95617 0 0 .95617 19.77 19.77)"/><radialGradient cx="7813.978" cy="1417.241" r="167" fx="7813.978" fy="1417.241" id="bd" xlink:href="#a" gradientUnits="userSpaceOnUse" gradientTransform="matrix(.95617 0 0 .95617 19.77 19.77)"/><radialGradient cx="7568.978" cy="1244.241" r="167" fx="7568.978" fy="1244.241" id="bc" xlink:href="#a" gradientUnits="userSpaceOnUse" gradientTransform="matrix(.95617 0 0 .95617 19.77 19.77)"/><radialGradient cx="7312.978" cy="1090.241" r="167" fx="7312.978" fy="1090.241" id="bb" xlink:href="#a" gradientUnits="userSpaceOnUse" gradientTransform="matrix(.95617 0 0 .95617 19.77 19.77)"/><radialGradient cx="7046.978" cy="952.241" r="167" fx="7046.978" fy="952.241" id="ba" xlink:href="#a" gradientUnits="userSpaceOnUse" gradientTransform="matrix(.95617 0 0 .95617 19.77 19.77)"/><radialGradient cx="6773.978" cy="832.241" r="167" fx="6773.978" fy="832.241" id="aZ" xlink:href="#a" gradientUnits="userSpaceOnUse" gradientTransform="matrix(.95617 0 0 .95617 19.77 19.77)"/><radialGradient cx="6492.978" cy="729.241" r="167" fx="6492.978" fy="729.241" id="aY" xlink:href="#a" gradientUnits="userSpaceOnUse" gradientTransform="matrix(.95617 0 0 .95617 19.77 19.77)"/><radialGradient cx="6492.978" cy="9327.241" r="167" fx="6492.978" fy="9327.241" id="aX" xlink:href="#a" gradientUnits="userSpaceOnUse" gradientTransform="matrix(.95617 0 0 .95617 19.77 19.77)"/><radialGradient cx="6773.978" cy="9224.241" r="167" fx="6773.978" fy="9224.241" id="aW" xlink:href="#a" gradientUnits="userSpaceOnUse" gradientTransform="matrix(.95617 0 0 .95617 19.77 19.77)"/><radialGradient cx="7046.978" cy="9104.241" r="167" fx="7046.978" fy="9104.241" id="aV" xlink:href="#a" gradientUnits="userSpaceOnUse" gradientTransform="matrix(.95617 0 0 .95617 19.77 19.77)"/><radialGradient cx="7312.978" cy="8966.241" r="167" fx="7312.978" fy="8966.241" id="aU" xlink:href="#a" gradientUnits="userSpaceOnUse" gradientTransform="matrix(.95617 0 0 .95617 19.77 19.77)"/><radialGradient cx="7568.978" cy="8811.241" r="167" fx="7568.978" fy="8811.241" id="aT" xlink:href="#a" gradientUnits="userSpaceOnUse" gradientTransform="matrix(.95617 0 0 .95617 19.77 19.77)"/><radialGradient cx="8471.978" cy="8033.241" r="167" fx="8471.978" fy="8033.241" id="aS" xlink:href="#a" gradientUnits="userSpaceOnUse" gradientTransform="matrix(.95617 0 0 .95617 19.77 19.77)"/><radialGradient cx="7813.978" cy="8639.241" r="167" fx="7813.978" fy="8639.241" id="aR" xlink:href="#a" gradientUnits="userSpaceOnUse" gradientTransform="matrix(.95617 0 0 .95617 19.77 19.77)"/><radialGradient cx="8044.978" cy="8452.241" r="167" fx="8044.978" fy="8452.241" id="aQ" xlink:href="#a" gradientUnits="userSpaceOnUse" gradientTransform="matrix(.95617 0 0 .95617 19.77 19.77)"/><radialGradient cx="8264.978" cy="8250.241" r="167" fx="8264.978" fy="8250.241" id="aP" xlink:href="#a" gradientUnits="userSpaceOnUse" gradientTransform="matrix(.95617 0 0 .95617 19.77 19.77)"/><radialGradient cx="8662.978" cy="7805.241" r="167" fx="8662.978" fy="7805.241" id="aO" xlink:href="#a" gradientUnits="userSpaceOnUse" gradientTransform="matrix(.95617 0 0 .95617 19.77 19.77)"/><radialGradient cx="8837.978" cy="7562.241" r="167" fx="8837.978" fy="7562.241" id="aN" xlink:href="#a" gradientUnits="userSpaceOnUse" gradientTransform="matrix(.95617 0 0 .95617 19.77 19.77)"/><radialGradient cx="8996.978" cy="7310.241" r="167" fx="8996.978" fy="7310.241" id="aM" xlink:href="#a" gradientUnits="userSpaceOnUse" gradientTransform="matrix(.95617 0 0 .95617 19.77 19.77)"/><radialGradient cx="9139.978" cy="7047.241" r="167" fx="9139.978" fy="7047.241" id="aL" xlink:href="#a" gradientUnits="userSpaceOnUse" gradientTransform="matrix(.95617 0 0 .95617 19.77 19.77)"/><radialGradient cx="9264.978" cy="6775.241" r="167" fx="9264.978" fy="6775.241" id="aK" xlink:href="#a" gradientUnits="userSpaceOnUse" gradientTransform="matrix(.95617 0 0 .95617 19.77 19.77)"/><radialGradient cx="9371.978" cy="6496.241" r="167" fx="9371.978" fy="6496.241" id="aJ" xlink:href="#a" gradientUnits="userSpaceOnUse" gradientTransform="matrix(.95617 0 0 .95617 19.77 19.77)"/><radialGradient cx="9607.855" cy="5035.949" r="167" fx="9607.855" fy="5035.949" id="aI" xlink:href="#a" gradientUnits="userSpaceOnUse" gradientTransform="matrix(.95617 0 0 .95617 19.77 19.77)"/><radialGradient cx="9605.978" cy="4729.241" r="167" fx="9605.978" fy="4729.241" id="aH" xlink:href="#a" gradientUnits="userSpaceOnUse" gradientTransform="matrix(.95617 0 0 .95617 19.77 19.77)"/><radialGradient cx="9576.978" cy="4432.241" r="167" fx="9576.978" fy="4432.241" id="aG" xlink:href="#a" gradientUnits="userSpaceOnUse" gradientTransform="matrix(.95617 0 0 .95617 19.77 19.77)"/><radialGradient cx="9527.978" cy="4138.241" r="167" fx="9527.978" fy="4138.241" id="aF" xlink:href="#a" gradientUnits="userSpaceOnUse" gradientTransform="matrix(.95617 0 0 .95617 19.77 19.77)"/><radialGradient cx="9458.978" cy="3847.241" r="167" fx="9458.978" fy="3847.241" id="aE" xlink:href="#a" gradientUnits="userSpaceOnUse" gradientTransform="matrix(.95617 0 0 .95617 19.77 19.77)"/><radialGradient cx="9458.978" cy="6209.241" r="167" fx="9458.978" fy="6209.241" id="aD" xlink:href="#a" gradientUnits="userSpaceOnUse" gradientTransform="matrix(.95617 0 0 .95617 19.77 19.77)"/><radialGradient cx="9527.978" cy="5918.241" r="167" fx="9527.978" fy="5918.241" id="aC" xlink:href="#a" gradientUnits="userSpaceOnUse" gradientTransform="matrix(.95617 0 0 .95617 19.77 19.77)"/><radialGradient cx="598.978" cy="5476.241" r="167" fx="598.978" fy="5476.241" id="P" xlink:href="#a" gradientUnits="userSpaceOnUse" gradientTransform="matrix(.95617 0 0 .95617 19.77 19.77)"/><radialGradient cx="9605.978" cy="5327.241" r="167" fx="9605.978" fy="5327.241" id="aA" xlink:href="#a" gradientUnits="userSpaceOnUse" gradientTransform="matrix(.95617 0 0 .95617 19.77 19.77)"/><radialGradient cx="9616.978" cy="5029.241" r="167" fx="9616.978" fy="5029.241" id="az" xlink:href="#a" gradientUnits="userSpaceOnUse" gradientTransform="matrix(.95617 0 0 .95617 19.77 19.77)"/><radialGradient cx="4425.978" cy="9498.241" r="167" fx="4425.978" fy="9498.241" id="ay" xlink:href="#a" gradientUnits="userSpaceOnUse" gradientTransform="matrix(.95617 0 0 .95617 19.77 19.77)"/><radialGradient cx="4722.978" cy="9532.241" r="167" fx="4722.978" fy="9532.241" id="ax" xlink:href="#a" gradientUnits="userSpaceOnUse" gradientTransform="matrix(.95617 0 0 .95617 19.77 19.77)"/><radialGradient cx="5020.978" cy="9547.241" r="167" fx="5020.978" fy="9547.241" id="aw" xlink:href="#a" gradientUnits="userSpaceOnUse" gradientTransform="matrix(.95617 0 0 .95617 19.77 19.77)"/><radialGradient cx="5319.978" cy="9542.241" r="167" fx="5319.978" fy="9542.241" id="av" xlink:href="#a" gradientUnits="userSpaceOnUse" gradientTransform="matrix(.95617 0 0 .95617 19.77 19.77)"/><radialGradient cx="5618.978" cy="9517.241" r="167" fx="5618.978" fy="9517.241" id="au" xlink:href="#a" gradientUnits="userSpaceOnUse" gradientTransform="matrix(.95617 0 0 .95617 19.77 19.77)"/><radialGradient cx="5913.978" cy="9472.241" r="167" fx="5913.978" fy="9472.241" id="at" xlink:href="#a" gradientUnits="userSpaceOnUse" gradientTransform="matrix(.95617 0 0 .95617 19.77 19.77)"/><radialGradient cx="6206.978" cy="9409.241" r="167" fx="6206.978" fy="9409.241" id="as" xlink:href="#a" gradientUnits="userSpaceOnUse" gradientTransform="matrix(.95617 0 0 .95617 19.77 19.77)"/><radialGradient cx="2261.978" cy="8549.241" r="167" fx="2261.978" fy="8549.241" id="ar" xlink:href="#a" gradientUnits="userSpaceOnUse" gradientTransform="matrix(.95617 0 0 .95617 19.77 19.77)"/><radialGradient cx="2500.978" cy="8728.241" r="167" fx="2500.978" fy="8728.241" id="aq" xlink:href="#a" gradientUnits="userSpaceOnUse" gradientTransform="matrix(.95617 0 0 .95617 19.77 19.77)"/><radialGradient cx="2750.978" cy="8892.241" r="167" fx="2750.978" fy="8892.241" id="ap" xlink:href="#a" gradientUnits="userSpaceOnUse" gradientTransform="matrix(.95617 0 0 .95617 19.77 19.77)"/><radialGradient cx="3011.978" cy="9037.241" r="167" fx="3011.978" fy="9037.241" id="ao" xlink:href="#a" gradientUnits="userSpaceOnUse" gradientTransform="matrix(.95617 0 0 .95617 19.77 19.77)"/><radialGradient cx="3280.978" cy="9166.241" r="167" fx="3280.978" fy="9166.241" id="an" xlink:href="#a" gradientUnits="userSpaceOnUse" gradientTransform="matrix(.95617 0 0 .95617 19.77 19.77)"/><radialGradient cx="3558.978" cy="9278.241" r="167" fx="3558.978" fy="9278.241" id="am" xlink:href="#a" gradientUnits="userSpaceOnUse" gradientTransform="matrix(.95617 0 0 .95617 19.77 19.77)"/><radialGradient cx="3841.978" cy="9370.241" r="167" fx="3841.978" fy="9370.241" id="al" xlink:href="#a" gradientUnits="userSpaceOnUse" gradientTransform="matrix(.95617 0 0 .95617 19.77 19.77)"/><radialGradient cx="4131.978" cy="9443.241" r="167" fx="4131.978" fy="9443.241" id="ak" xlink:href="#a" gradientUnits="userSpaceOnUse" gradientTransform="matrix(.95617 0 0 .95617 19.77 19.77)"/><radialGradient cx="1440.978" cy="7684.241" r="167" fx="1440.978" fy="7684.241" id="aj" xlink:href="#a" gradientUnits="userSpaceOnUse" gradientTransform="matrix(.95617 0 0 .95617 19.77 19.77)"/><radialGradient cx="1622.978" cy="7920.241" r="167" fx="1622.978" fy="7920.241" id="ai" xlink:href="#a" gradientUnits="userSpaceOnUse" gradientTransform="matrix(.95617 0 0 .95617 19.77 19.77)"/><radialGradient cx="1821.978" cy="8143.241" r="167" fx="1821.978" fy="8143.241" id="ah" xlink:href="#a" gradientUnits="userSpaceOnUse" gradientTransform="matrix(.95617 0 0 .95617 19.77 19.77)"/><radialGradient cx="2035.978" cy="8353.241" r="167" fx="2035.978" fy="8353.241" id="ag" xlink:href="#a" gradientUnits="userSpaceOnUse" gradientTransform="matrix(.95617 0 0 .95617 19.77 19.77)"/><radialGradient cx="697.978" cy="6065.241" r="167" fx="697.978" fy="6065.241" id="af" xlink:href="#a" gradientUnits="userSpaceOnUse" gradientTransform="matrix(.95617 0 0 .95617 19.77 19.77)"/><radialGradient cx="774.978" cy="6354.241" r="167" fx="774.978" fy="6354.241" id="ae" xlink:href="#a" gradientUnits="userSpaceOnUse" gradientTransform="matrix(.95617 0 0 .95617 19.77 19.77)"/><radialGradient cx="872.978" cy="6636.241" r="167" fx="872.978" fy="6636.241" id="ad" xlink:href="#a" gradientUnits="userSpaceOnUse" gradientTransform="matrix(.95617 0 0 .95617 19.77 19.77)"/><radialGradient cx="987.978" cy="6912.241" r="167" fx="987.978" fy="6912.241" id="ac" xlink:href="#a" gradientUnits="userSpaceOnUse" gradientTransform="matrix(.95617 0 0 .95617 19.77 19.77)"/><radialGradient cx="1120.978" cy="7179.241" r="167" fx="1120.978" fy="7179.241" id="ab" xlink:href="#a" gradientUnits="userSpaceOnUse" gradientTransform="matrix(.95617 0 0 .95617 19.77 19.77)"/><radialGradient cx="1272.978" cy="7438.241" r="167" fx="1272.978" fy="7438.241" id="aa" xlink:href="#a" gradientUnits="userSpaceOnUse" gradientTransform="matrix(.95617 0 0 .95617 19.77 19.77)"/><radialGradient cx="1272.978" cy="2618.241" r="167" fx="1272.978" fy="2618.241" id="Z" xlink:href="#a" gradientUnits="userSpaceOnUse" gradientTransform="matrix(.95617 0 0 .95617 19.77 19.77)"/><radialGradient cx="1120.978" cy="2877.241" r="167" fx="1120.978" fy="2877.241" id="Y" xlink:href="#a" gradientUnits="userSpaceOnUse" gradientTransform="matrix(.95617 0 0 .95617 19.77 19.77)"/><radialGradient cx="987.978" cy="3144.241" r="167" fx="987.978" fy="3144.241" id="X" xlink:href="#a" gradientUnits="userSpaceOnUse" gradientTransform="matrix(.95617 0 0 .95617 19.77 19.77)"/><radialGradient cx="872.978" cy="3420.241" r="167" fx="872.978" fy="3420.241" id="W" xlink:href="#a" gradientUnits="userSpaceOnUse" gradientTransform="matrix(.95617 0 0 .95617 19.77 19.77)"/><radialGradient cx="774.978" cy="3702.241" r="167" fx="774.978" fy="3702.241" id="V" xlink:href="#a" gradientUnits="userSpaceOnUse" gradientTransform="matrix(.95617 0 0 .95617 19.77 19.77)"/><radialGradient cx="697.978" cy="3991.241" r="167" fx="697.978" fy="3991.241" id="U" xlink:href="#a" gradientUnits="userSpaceOnUse" gradientTransform="matrix(.95617 0 0 .95617 19.77 19.77)"/><radialGradient cx="638.978" cy="4285.241" r="167" fx="638.978" fy="4285.241" id="T" xlink:href="#a" gradientUnits="userSpaceOnUse" gradientTransform="matrix(.95617 0 0 .95617 19.77 19.77)"/><radialGradient cx="598.978" cy="4580.241" r="167" fx="598.978" fy="4580.241" id="S" xlink:href="#a" gradientUnits="userSpaceOnUse" gradientTransform="matrix(.95617 0 0 .95617 19.77 19.77)"/><radialGradient cx="578.978" cy="4879.241" r="167" fx="578.978" fy="4879.241" id="R" xlink:href="#a" gradientUnits="userSpaceOnUse" gradientTransform="matrix(.95617 0 0 .95617 19.77 19.77)"/><radialGradient cx="578.978" cy="5177.241" r="167" fx="578.978" fy="5177.241" id="Q" xlink:href="#a" gradientUnits="userSpaceOnUse" gradientTransform="matrix(.95617 0 0 .95617 19.77 19.77)"/><linearGradient x1="5233" y1="2437" x2="5228" y2="2274" id="l" gradientUnits="userSpaceOnUse" gradientTransform="matrix(.95617 0 0 .95617 19.77 19.77)"><stop offset="0" stop-color="#28166f"/><stop offset="1" stop-color="#974578"/></linearGradient><linearGradient x1="2228" y1="5264" x2="2228" y2="4919" id="b" gradientUnits="userSpaceOnUse" gradientTransform="matrix(.95617 0 0 .95617 19.77 19.77)"><stop offset="0" stop-color="#00923f"/><stop offset="1" stop-color="#84c225"/></linearGradient><linearGradient x1="2143" y1="5898" x2="2143" y2="5628" id="t" gradientUnits="userSpaceOnUse" gradientTransform="matrix(.95617 0 0 .95617 19.77 19.77)"><stop offset="0" stop-color="#00923f"/><stop offset="1" stop-color="#84c225"/></linearGradient><linearGradient x1="8038" y1="4999" x2="8086" y2="5492" id="s" gradientUnits="userSpaceOnUse" gradientTransform="matrix(.95617 0 0 .95617 19.77 19.77)"><stop offset="0" stop-color="#e77817"/><stop offset="1" stop-color="#da251d"/></linearGradient><linearGradient x1="8014" y1="4616" x2="8060" y2="5091" id="r" gradientUnits="userSpaceOnUse" gradientTransform="matrix(.95617 0 0 .95617 19.77 19.77)"><stop offset="0" stop-color="#e77817"/><stop offset="1" stop-color="#da251d"/></linearGradient><linearGradient x1="5399" y1="2185" x2="5393" y2="2005" id="q" gradientUnits="userSpaceOnUse" gradientTransform="matrix(.95617 0 0 .95617 19.77 19.77)"><stop offset="0" stop-color="#28166f"/><stop offset="1" stop-color="#974578"/></linearGradient><linearGradient x1="2266" y1="5728" x2="2266" y2="5327" id="p" gradientUnits="userSpaceOnUse" gradientTransform="matrix(.95617 0 0 .95617 19.77 19.77)"><stop offset="0" stop-color="#00923f"/><stop offset="1" stop-color="#84c225"/></linearGradient><linearGradient x1="5265" y1="2121" x2="5259" y2="1959" id="o" gradientUnits="userSpaceOnUse" gradientTransform="matrix(.95617 0 0 .95617 19.77 19.77)"><stop offset="0" stop-color="#28166f"/><stop offset="1" stop-color="#974578"/></linearGradient><linearGradient x1="5154" y1="2208" x2="5149" y2="2045" id="n" gradientUnits="userSpaceOnUse" gradientTransform="matrix(.95617 0 0 .95617 19.77 19.77)"><stop offset="0" stop-color="#28166f"/><stop offset="1" stop-color="#974578"/></linearGradient><linearGradient x1="5122" y1="2026" x2="5118" y2="1880" id="m" gradientUnits="userSpaceOnUse" gradientTransform="matrix(.95617 0 0 .95617 19.77 19.77)"><stop offset="0" stop-color="#28166f"/><stop offset="1" stop-color="#974578"/></linearGradient><linearGradient x1="2159" y1="5565" x2="2159" y2="5208" id="u" gradientUnits="userSpaceOnUse" gradientTransform="matrix(.95617 0 0 .95617 19.77 19.77)"><stop offset="0" stop-color="#00923f"/><stop offset="1" stop-color="#84c225"/></linearGradient><linearGradient x1="5351" y1="2358" x2="5346" y2="2195" id="k" gradientUnits="userSpaceOnUse" gradientTransform="matrix(.95617 0 0 .95617 19.77 19.77)"><stop offset="0" stop-color="#28166f"/><stop offset="1" stop-color="#974578"/></linearGradient><linearGradient x1="5044" y1="2255" x2="5039" y2="2109" id="j" gradientUnits="userSpaceOnUse" gradientTransform="matrix(.95617 0 0 .95617 19.77 19.77)"><stop offset="0" stop-color="#28166f"/><stop offset="1" stop-color="#974578"/></linearGradient><linearGradient x1="5147" y1="2358" x2="5141" y2="2179" id="i" gradientUnits="userSpaceOnUse" gradientTransform="matrix(.95617 0 0 .95617 19.77 19.77)"><stop offset="0" stop-color="#28166f"/><stop offset="1" stop-color="#974578"/></linearGradient><linearGradient x1="5028" y1="2137" x2="5023" y2="2006" id="h" gradientUnits="userSpaceOnUse" gradientTransform="matrix(.95617 0 0 .95617 19.77 19.77)"><stop offset="0" stop-color="#28166f"/><stop offset="1" stop-color="#974578"/></linearGradient><linearGradient x1="5264" y1="2270" x2="5259" y2="2124" id="g" gradientUnits="userSpaceOnUse" gradientTransform="matrix(.95617 0 0 .95617 19.77 19.77)"><stop offset="0" stop-color="#28166f"/><stop offset="1" stop-color="#974578"/></linearGradient><linearGradient x1="4910" y1="2224" x2="4905" y2="2061" id="f" gradientUnits="userSpaceOnUse" gradientTransform="matrix(.95617 0 0 .95617 19.77 19.77)"><stop offset="0" stop-color="#28166f"/><stop offset="1" stop-color="#974578"/></linearGradient><linearGradient x1="4978" y1="2374" x2="4972" y2="2219" id="e" gradientUnits="userSpaceOnUse" gradientTransform="matrix(.95617 0 0 .95617 19.77 19.77)"><stop offset="0" stop-color="#28166f"/><stop offset="1" stop-color="#974578"/></linearGradient><linearGradient x1="5320" y1="2523" x2="5314" y2="2345" id="d" gradientUnits="userSpaceOnUse" gradientTransform="matrix(.95617 0 0 .95617 19.77 19.77)"><stop offset="0" stop-color="#28166f"/><stop offset="1" stop-color="#974578"/></linearGradient><linearGradient x1="5122" y1="2507" x2="5118" y2="2361" id="c" gradientUnits="userSpaceOnUse" gradientTransform="matrix(.95617 0 0 .95617 19.77 19.77)"><stop offset="0" stop-color="#28166f"/><stop offset="1" stop-color="#974578"/></linearGradient><linearGradient id="a"><stop offset="0" stop-color="#ae8b61"/><stop offset="1" stop-color="#a68156"/></linearGradient></defs><g transform="matrix(1.04583 0 0 1.04583 -234.676 -234.676)"><circle cx="5119" cy="5121" r="4519" fill="#e0e1e3"/><path d="M2718 2610c-4-37-37-64-73-60-37 4-64 37-60 74 4 36 37 63 74 59 36-4 63-37 59-73z"/><circle cx="5120" cy="5120" r="3511" fill="#ae8b61" stroke="#000" stroke-width="24.861"/><path d="M7688 2645c-4-37-37-63-73-60-37 4-63 37-59 74 3 36 36 63 73 59 36-4 63-37 59-73z"/><path d="M2558 2582v4269c270 1222 2031 1061 2562 1611 531-550 2292-389 2562-1611V2582H2558z" fill="#fff" stroke="#000" stroke-width="24.861"/><path d="M5120 5120h1163v2853c-499 113-912 230-1163 477V5120z" fill="#da251d" stroke="#da251d" stroke-width="24.861"/><path fill="#da251d" d="M5120 4542h2562v578H5120z"/><path fill="#957f66" stroke="#000" stroke-width="18.302" d="M5930 5669h52v28h-52zM5997 5669h52v28h-52zM5430 5668h52v28h-52zM5497 5668h52v28h-52zM5653 5591h77v34h-77zM5759 5591h77v34h-77zM5375 7093l1-294 103-81v-655h532v655l104 81v299l-213-53c25-524-310-608-306 9l-221 39z"/><path fill="#da251d" d="M2753.014 3304h212v1816h-212zM3144.608 3304h212v1816h-212zM3536.203 3304h212v1816h-212zM3927.797 3304h212v1816h-212zM4319.392 3304h212v1816h-212zM4710.986 3304h212v1816h-212z"/><path fill="#28166f" d="M2556 2581h2564v746H2556z"/><path d="M2559 5120h5123M5120 2581v5874" fill="none" stroke="#000" stroke-width="24.861"/><g fill="#fff"><path d="M3991 2682l35 107h112l-91 65 35 107-91-66-91 66 35-107-91-65h112l35-107zm-17 53M3685.5 2682l34 107h112l-90 65 34 107-90-66-91 66 34-107-90-65h112l35-107zm-18 53M3378.5 2682l35 107h112l-91 65 35 107-91-66-90 66 34-107-90-65h112l34-107zm-17 53M3073.5 2682l34 107h112l-90 65 34 107-90-66-91 66 35-107-91-65h112l35-107zm-18 53M4296.5 2682l35 107h112l-91 65 35 107-91-66-90 66 34-107-90-65h112l34-107zm-17 53M4603.5 2682l34 107h112l-90 65 34 107-90-66-91 66 35-107-91-65h112l35-107zm-18 53"/></g><g fill="#fff"><path d="M4146.167 2910l34 107h112l-90 66 34 106-90-66-91 66 35-106-91-66h112l35-107zm-18 54M3837.75 2910l35 107h112l-91 66 35 106-91-66-90 66 34-106-90-66h112l34-107zm-17 54M3530.833 2910l35 107h112l-91 66 35 106-91-66-91 66 35-106-91-66h112l35-107zm-17 54M3223.917 2910l34 107h112l-90 66 34 106-90-66-91 66 35-106-91-66h112l35-107zm-18 54M4453.083 2910l35 107h112l-91 66 35 106-91-66-91 66 35-106-91-66h112l35-107zm-17 54M4760 2910l35 107h112l-91 66 35 106-91-66-90 66 34-106-90-66h112l34-107zm-17 54M2916 2910l35 107h112l-91 66 35 106-91-66-91 66 35-106-91-66h112l35-107zm-17 54"/></g><path d="M5672 2970l62 193h204l-165 120 63 193-164-119-165 119 63-193-165-120h204l63-193zm-32 97" fill="#da251d" stroke="#000" stroke-width="18.302"/><path d="M2224 5835c-65 158-280 426-65 640 29-182 73-364 170-546-51-31-55-63-105-94zM2219.144 3853.428c-68 109-109.237 225.81-141.81 455.572-309 497-223.334 844-174.334 1216 175-226 88-700 173-1121-33 225-93 478 88 521 47-163-46-311-63-469 77 221 155 443 285 664 56-273-49-546-183-819-48-145 31-242 81-396 57 19 122-172 111-260-106 60-135.856 122.428-175.856 208.428z" fill="#00923f" stroke="#000" stroke-width="24.861"/><path d="M2137 6209c47-134 87-241 110-289" fill="none" stroke="#000" stroke-width="24.861"/><ellipse cx="2228" cy="5092" rx="132" ry="173" fill="url(#b)" stroke="#000" stroke-width="24.861"/><path d="M2285 6149c52-136 92-282 44-502l-132 75c8 142 46 285 88 427z" fill="#00923f" stroke="#000" stroke-width="24.861"/><circle cx="5120" cy="2434" r="71" fill="url(#c)" stroke="#000" stroke-width="24.861"/><ellipse cx="5317" cy="2434" rx="79" ry="87" fill="url(#d)" stroke="#000" stroke-width="24.861"/><ellipse cx="4975" cy="2296" rx="84" ry="75" fill="url(#e)" stroke="#000" stroke-width="24.861"/><circle cx="4907" cy="2142" r="79" fill="url(#f)" stroke="#000" stroke-width="24.861"/><ellipse cx="5262" cy="2197" rx="71" ry="70" fill="url(#g)" stroke="#000" stroke-width="24.861"/><circle cx="5025" cy="2071" r="63" fill="url(#h)" stroke="#000" stroke-width="24.861"/><circle cx="5144" cy="2269" r="87" fill="url(#i)" stroke="#000" stroke-width="24.861"/><circle cx="5041" cy="2182" r="71" fill="url(#j)" stroke="#000" stroke-width="24.861"/><circle cx="5349" cy="2276" r="79" fill="url(#k)" stroke="#000" stroke-width="24.861"/><circle cx="5230" cy="2355" r="79" fill="url(#l)" stroke="#000" stroke-width="24.861"/><circle cx="5120" cy="1953" r="71" fill="url(#m)" stroke="#000" stroke-width="24.861"/><circle cx="5152" cy="2127" r="79" fill="url(#n)" stroke="#000" stroke-width="24.861"/><circle cx="5262" cy="2040" r="79" fill="url(#o)" stroke="#000" stroke-width="24.861"/><ellipse cx="2266" cy="5528" rx="125" ry="201" fill="url(#p)" stroke="#000" stroke-width="24.861"/><ellipse cx="5396" cy="2095" rx="95" ry="87" fill="url(#q)" stroke="#000" stroke-width="24.861"/><path d="M5764 2016c2-165 143-95 291-107-4 114-19 216-115 238 33 66 74 110 122 130-33 22-66 40-99 31-26 53-28 107-8 160-82 8-148-38-199-137-54 34-107 42-161 46-15-72 0-143 46-215-64 13-128-13-192-77 119-150 227-209 315-69zM4649 2110c74-150 164-280 362-270 118 124-3 212-132 299-37 97-79 180-202 104-31 141-166 158-270 212 19-87 50-172 167-235-45-2-92-12-150-75 52-29 104-58 156-86-116-19-114-108-46-236 88-34 176-76 264 40-50 83-100 165-149 247z" fill="#00923f" stroke="#000" stroke-width="24.861"/><path d="M4603 2001l-41-46" fill="none" stroke="#000" stroke-width="24.861"/><path d="M5825 1978c-137.635-59.154-303.987-86.017-483-8-317.584-23.468-605.944-38.602-771.335-7.572C4337.665 1999.428 4142 2094 3910 2193c63-124 260-231 651-314 247-3 526.144 9.572 774.144 7.572C5611.191 1840.86 5667 1826 5782 1926c89 18 179 35 269 52 58.819 19.016 224.841 127.534 362 211-123-66-193-63-212 9 34-111.582-84-111.796-224-194-70.066-4.835-106.927-48.182-152-26z" fill="#00923f" stroke="#000" stroke-width="24.861"/><path d="M4723 2116l41 52M4838 2013l98-12M5856 2300l-86-213M5597 2059h63M5856 2053l23-63M5683 2271l41-28M5885 2191l23 23" fill="none" stroke="#000" stroke-width="24.861"/><path d="M8118 3790c15 57 30 113 44 170-175 198-217 422-125 671-31 25-63 50-94 75-168-312 39-648 175-916zM7882 6274c243-112 308-321 159-648-200 76-95 325-159 648z" fill="#00923f" stroke="#000" stroke-width="24.861"/><path d="M8008 6055c29-110-15-233 23-291" fill="none" stroke="#000" stroke-width="24.861"/><path d="M7856 5290c-4 115-14 222-32 323 68-46 126-131 180-233-49-30-99-60-148-90zM8269 5337c13 76 45 152 85 228-112 27-202-8-244-180l159-48zM8094 5857c-170-145-160-290-26-435 132 153 158 299 26 435z" fill="#00923f" stroke="#000" stroke-width="24.861"/><ellipse cx="8037" cy="4853" rx="238" ry="216" fill="url(#r)" stroke="#000" stroke-width="24.861"/><ellipse cx="8062" cy="5245" rx="238" ry="226" fill="url(#s)" stroke="#000" stroke-width="24.861"/><path d="M8150 4518c241-171 298 208 106 512-307-371-330-519-106-512z" fill="#00923f" stroke="#000" stroke-width="24.861"/><path d="M8236 4780c18-95 3-191-84-260" fill="none" stroke="#000" stroke-width="24.861"/><path d="M2291 5164c-1.964 21.817-15 34.777-41.428 37.023M2291 5634c10.61 13.038 21.222 11.408 31.833 0" fill="none" stroke="#000" stroke-width="24.863" stroke-linecap="round"/><path d="M2275 5718l13 170" fill="none" stroke="#000" stroke-width="24.861"/><ellipse cx="2143" cy="5763" rx="116" ry="135" fill="url(#t)" stroke="#000" stroke-width="24.861"/><path d="M2128.93 5820.405c30.988 14.82 36.169-2.618 49.07-10.405" fill="none" stroke="#000" stroke-width="24.863" stroke-linecap="round"/><ellipse cx="2159" cy="5387" rx="107" ry="179" fill="url(#u)" stroke="#000" stroke-width="24.861"/><path d="M2133.167 5484c16.952 15.505 33.904 8.518 50.856 0" fill="none" stroke="#000" stroke-width="24.863" stroke-linecap="round"/><path d="M8071 5689c36-75-1-171 5-224" fill="none" stroke="#000" stroke-width="24.861"/><path d="M7901 5056c54 46 92 92 30 136-57-45-57-91-30-136zM7931 5194c40 58 65 135-6 161-44-58-32-125 6-161z" fill="#00923f" stroke="#000" stroke-width="24.861"/><path d="M5821 7121h328v-115h-218v-98h217l1-98h-218v-109c-1-53-104-149-184-149-81 0-183 96-184 149v109h-219l1 98h218v98h-219v115h328l-1-380c5-91 143-111 155 0l-5 380zM5425 6023h632v75h-632z" fill="#957f66" stroke="#000" stroke-width="18.302"/><path fill="#957f66" stroke="#000" stroke-width="18.302" d="M5396 5954h690v75h-690zM5414.5 5858h148v64h-148zM5914.5 5858h148v64h-148zM5669 5689h151v190h-151z"/><path fill="#957f66" stroke="#000" stroke-width="18.302" d="M5657 5858h175v64h-175zM5926 5702h125v65h-125z"/><path fill="#957f66" stroke="#000" stroke-width="18.302" d="M5937 5762h103v95h-103zM5426 5700h125v65h-125z"/><path fill="#957f66" stroke="#000" stroke-width="18.302" d="M5437 5760h103v95h-103zM5645 5622h199v80h-199z"/><path d="M5744.5 5818.824v-61" fill="none" stroke="#000" stroke-width="25.817" stroke-linecap="round"/><path d="M5555.5 6296c4-139 132-156 137 0h-137zM5554 6397h140v59h-140z" fill="#877560" stroke="#000" stroke-width="18.302"/><path d="M5582.136 6398h83c4-56-5-109-38-165-30 50-47 102-45 165z" stroke="#000" stroke-width="24.861"/><path d="M5799.5 6296c5-139 133-156 137 0h-137zM5798 6397h140v59h-140z" fill="#877560" stroke="#000" stroke-width="18.302"/><path d="M5825.934 6398h83c5-56-4-109-38-165-29 50-47 102-45 165z" stroke="#000" stroke-width="24.861"/><path fill="#957f66" stroke="#000" stroke-width="18.302" d="M5396 5908h690v62h-690z"/><path d="M5746.5 6672l-34-54-35-54h138l-35 54-34 54z" fill="none" stroke="#000" stroke-width="18.302"/><path d="M1338 5195c0-2083 1698-3781 3780-3781 2083 0 3781 1698 3781 3781" fill="none"/><path d="M1328 3273l145 56-4 10c-48-7-87-3-117 11-29 15-52 39-67 72-13 27-18 55-14 84s18 57 42 84c25 27 60 51 106 72 37 18 73 27 106 28s62-8 88-25 47-42 61-73c13-27 18-53 16-79s-14-59-37-100l10-7c28 38 43 75 48 111 4 36-3 73-21 111-32 69-82 110-151 124-51 10-102 4-153-20-42-20-76-47-102-81-26-35-41-73-45-115-3-41 4-81 22-120 14-29 35-56 63-78 8-6 14-12 15-15 3-6 3-11 1-17-3-8-9-16-17-22l5-11zM1917 3152l11 7-98 169-11-6 8-14c9-16 12-31 6-44-3-8-17-19-41-33l-256-148c-20-11-34-18-42-19-6-1-12 1-19 5-10 6-17 13-23 23l-8 14-11-6 98-170 11 6-8 14c-9 16-11 31-6 44 3 8 17 19 41 33l256 148c20 12 34 18 42 19 6 1 12-1 19-5 10-6 17-13 23-22l8-15zM1883 2461l87 63-8 10c-16-10-29-16-38-17-14-3-28-2-40 3s-24 15-36 30l-40 50 271 220c22 18 38 27 47 26 13 0 25-8 36-22l10-12 10 8-123 151-9-8 10-13c12-15 16-29 12-43-2-8-13-20-33-36l-272-221-35 43c-13 17-22 30-25 39-4 11-4 24 0 38 5 15 14 29 29 43l-8 10-80-72 235-290zM2233 2092l117-109 8 10-6 6c-4 4-9 11-13 23-5 11-8 24-8 37s3 33 8 58l37 202 79 84c19 21 33 31 43 32 12 1 25-5 39-17l11-10 8 9-142 133-9-10 12-11c15-13 21-26 18-41-1-8-10-22-28-41l-74-79-222-54c-26-7-43-10-51-11-8 0-20 2-38 8-5 1-10 5-17 11l-8-9 143-134 9 9-8 7c-8 7-13 16-16 26-3 9-1 18 5 25 6 6 21 12 45 18l171 43-31-165c-4-24-10-41-17-48-4-5-10-8-15-9-6-2-12-1-18 1-7 2-14 7-23 15l-9-9zM2900 1574c50-31 106-39 167-24s109 51 145 109c37 59 49 119 36 181-13 63-46 110-99 143-53 34-110 43-170 27-60-15-109-53-147-113-38-62-49-125-31-190 15-57 48-101 99-133zm8 25c-35 21-55 52-60 91-6 48 10 103 49 165 40 63 84 104 132 121 37 13 73 9 107-13 36-23 57-56 63-99s-10-95-48-157c-41-66-85-107-132-124-37-13-74-7-111 16zM3398 1348l74 165 76-34c17-8 28-17 33-29 5-11 3-29-4-53l11-5 63 142-11 5c-8-16-15-27-23-33-7-6-15-9-24-10s-20 2-34 8l-76 34 58 132c10 21 17 34 23 40 4 4 11 7 19 7 11 1 22 0 32-5l15-7 5 12-180 80-5-12 15-6c17-8 28-19 31-32 2-9-3-26-14-51l-120-270c-10-21-17-35-23-40-4-4-10-7-18-8-11-1-22 1-32 5l-15 7-5-11 311-139 45 90-11 5c-14-17-26-29-37-35-12-6-23-8-36-8-12 1-29 6-50 15l-93 41zM4502 1326h11l-10 130-345 79-3-12 17-4c19-4 31-13 36-27 3-9 2-25-4-51l-67-287c-6-28-13-45-21-51-11-7-25-9-41-5l-17 4-3-13 202-46 3 12c-24 5-40 11-49 18-8 7-13 14-15 22s0 25 6 51l65 281c4 18 9 30 14 36 3 4 8 6 14 7s24-2 52-8l33-8c34-8 58-16 70-24 13-8 23-20 32-35 8-16 15-39 20-69zM4874 950c60-4 113 15 159 57 47 42 72 97 77 164 5 69-13 128-53 177-41 49-92 76-155 80-62 4-117-14-163-56s-71-98-76-169c-5-72 16-133 62-183 40-42 90-66 149-70zm-4 25c-41 3-73 20-95 52-28 40-40 97-35 169 5 75 25 131 60 169 27 29 60 42 100 39 43-3 77-22 103-58 25-35 36-89 31-161-6-78-25-135-59-171-27-29-62-42-105-39zM5598 969l-11 158-12-1c-2-30-8-55-17-74-9-18-23-34-42-46-18-12-38-18-58-20-24-1-44 4-60 18-16 13-25 29-26 47-1 14 3 27 12 39 12 18 44 42 94 74 41 26 69 46 84 59s26 28 33 46c7 17 10 35 9 53-2 34-18 63-47 86-28 23-64 34-106 31-13-1-25-3-37-6-7-2-21-7-42-15-22-9-35-13-41-14-6 0-10 1-14 4-3 3-6 10-8 21l-13-1 11-157 13 1c3 33 9 58 18 75s23 32 42 44c20 12 42 19 66 21 28 2 51-4 68-18 18-13 27-30 28-51 1-11-1-22-7-34-5-12-14-23-26-34-8-8-31-24-69-48-37-25-64-44-80-58-15-14-27-30-34-46-8-16-11-34-9-53 2-33 17-60 43-82 27-22 60-31 99-29 24 2 49 10 76 24 12 6 20 10 26 10s10-1 14-4c4-4 8-10 11-21l12 1zM6297 1438l-171-46-49 62c-12 15-19 27-21 35-2 7 0 14 5 20 5 7 18 14 39 22l-4 12-139-38 3-12c20 2 33 1 40-3 14-7 31-25 54-54l253-322 11 3 55 409c5 33 11 55 19 67 7 11 20 20 38 26l-3 12-175-47 4-12c17 4 30 4 38 1 7-3 12-9 14-16 2-9 2-26-1-49l-10-70zm-3-27l-27-199-124 158 151 41zM6697 1262l113 50 116 428 107-241c12-26 16-43 13-52-4-12-14-22-30-29l-15-7 5-11 146 65-5 11-15-7c-18-7-33-8-45 0-7 4-16 18-26 42l-157 352-11-5-126-459-115 257c-11 26-16 43-13 52 4 12 14 22 30 29l15 7-5 11-146-65 6-11 14 6c18 8 33 9 45 1 8-4 17-18 27-42l129-291c-5-19-10-33-15-40-4-7-11-16-22-25-5-4-13-9-25-15l5-11zM7674 1799l-73 126-10-7c11-37 14-68 9-93-7-38-28-68-63-93-48-33-98-40-149-20-43 18-80 48-111 92-25 36-41 74-48 113s-4 73 9 103c13 29 31 52 55 69 13 9 28 17 43 22 16 6 32 9 49 11l75-108c14-19 21-32 22-40s0-16-4-23-13-16-28-26l7-11 145 102-7 10-7-5c-15-10-28-12-40-6-8 4-20 16-34 36l-80 115c-29-3-56-9-80-19-25-9-50-22-75-40-72-50-111-112-116-185-4-55 10-105 42-150 23-33 53-59 90-78 44-23 89-33 136-29 38 3 76 18 114 44 13 10 25 19 35 29 9 10 22 26 37 48 7 11 13 18 17 21 3 2 7 2 12 1s11-7 18-16l10 7zM7936 2067l-124 133 74 68c19 18 34 27 46 27 16 1 33-8 52-26l9 8-109 117-9-9c13-18 20-31 22-38 3-8 2-17-2-27-3-9-12-21-26-34l-74-68-103 110c-13 15-21 24-23 29-1 4-2 9 0 14s7 12 16 20l57 53c19 18 34 29 45 35 11 5 24 8 39 7 20 0 45-6 74-17l10 10-107 56-258-240 9-9 12 11c7 7 17 12 27 15 8 2 15 2 22-2 7-3 18-13 33-29l203-218c20-21 30-36 30-45 0-12-7-25-20-38l-12-11 8-9 258 241-64 77-10-9c13-21 20-37 22-47 2-11 1-22-4-33-5-8-15-21-32-36l-91-86zM8262 2873l5 10-121 48-223-275 9-8 11 13c12 15 26 22 41 21 9-1 23-10 43-26l230-186c22-18 34-32 36-41 2-13-3-27-13-40l-11-14 10-8 130 162-10 7c-15-19-27-30-37-35s-19-6-27-4c-8 1-22 11-43 28l-224 181c-14 12-23 21-26 28-2 5-2 11-1 17 2 5 12 20 31 43l21 26c22 27 40 45 53 52 12 8 28 12 45 13 18 1 41-3 71-12zM8673 2938l-152 99 55 84c14 22 27 35 38 38 15 4 34-1 57-14l6 11-133 87-7-11c17-15 27-25 31-31 4-8 6-17 4-27-1-10-7-23-17-39l-55-85-126 82c-17 12-27 19-30 23s-4 8-4 13c1 6 4 14 11 24l42 65c14 22 26 37 36 45 9 7 21 13 36 16 19 4 45 5 76 2l8 11-118 30-192-296 10-7 9 14c6 9 14 16 23 21 7 4 14 5 22 4 7-2 20-9 39-21l249-162c25-16 38-28 41-37 3-12-1-25-11-41l-9-14 11-7 192 296-82 59-7-11c18-17 29-30 33-40 5-10 6-21 4-33-2-9-10-23-22-42l-68-106zM9051 3585l-144 67-5-12c26-16 45-33 57-50s18-37 20-59c1-22-3-42-11-61-10-21-25-36-44-43-20-8-38-8-54-1-13 6-22 16-29 30-9 19-16 59-19 118-3 49-6 83-11 102-4 20-12 37-24 51-11 15-25 26-42 34-31 15-64 15-98 1s-60-40-78-78c-6-12-10-24-13-35-2-7-4-22-7-45s-6-37-8-42c-3-5-6-8-11-10-4-1-11-1-22 2l-5-11 142-66 6 11c-28 19-47 37-57 53-11 15-17 35-18 58s4 45 14 67c12 26 28 43 48 51 20 9 40 9 58 0 10-4 19-12 27-22 8-11 14-24 17-40 3-11 5-39 9-84 3-44 7-77 12-97 5-21 13-38 23-53 11-14 25-25 42-33 30-14 61-15 93-2s56 37 73 72c10 22 16 48 16 78 0 14 2 23 4 28s6 8 11 10c4 2 12 2 23 0l5 11z"/><path d="M1454 5125c0 2019 1647 3665 3665 3665 2019 0 3665-1646 3665-3665" fill="none"/><path d="M2690 8027l-116 148 68 53c16 13 30 18 43 17s29-11 47-30l10 8-99 128-11-8c12-15 18-27 20-37s1-19-3-27c-4-9-12-18-24-27l-69-54-93 118c-15 19-23 33-26 41-1 6-1 13 3 21 4 11 11 20 20 27l14 10-8 11-162-127 8-10 13 10c16 13 31 17 45 13 9-2 22-15 40-37l190-244c15-19 24-32 26-40 2-7 1-14-2-21-4-11-11-20-20-27l-14-10 8-11 281 219-61 86-10-8c9-21 13-38 13-51 0-14-3-26-9-37-7-11-20-24-39-39l-83-65zM3183 8329c52 34 84 83 97 147 12 65-1 126-39 185-40 61-92 100-157 115-64 15-124 5-178-31-55-35-89-85-101-149-12-63 2-126 42-189 42-63 97-101 167-113 60-11 116 1 169 35zm-20 18c-36-23-73-29-112-16-49 15-94 55-135 119-43 66-61 125-56 178 4 41 23 73 59 96 37 25 78 30 122 17 43-14 86-52 127-116 44-68 64-128 59-179-4-41-26-74-64-99zM3726 8629l5-12 155 69-5 11-17-7c-17-8-33-6-49 4-8 5-17 19-28 43l-78 178c-20 43-39 75-59 96-19 20-46 33-79 39s-71-1-115-20c-48-21-80-46-98-73-17-28-25-58-23-90 2-23 15-60 38-113l76-170c12-27 16-46 13-58-4-12-14-21-31-29l-16-7 5-12 189 84-6 12-16-7c-18-8-34-9-47-1-8 6-18 21-29 45l-85 191c-7 17-14 37-21 60s-9 43-6 59 10 31 22 46 29 27 51 37c29 13 57 18 85 15 28-2 51-11 68-27 16-16 35-47 56-93l79-177c12-27 16-46 13-55-4-14-14-24-31-31l-16-7zM3914 8687l126 34 189 422 72-266c7-29 9-47 4-56-6-12-17-20-36-25l-16-4 4-13 160 43-3 13-16-5c-20-5-35-3-47 7-6 6-13 22-20 48l-105 389-12-3-205-454-76 285c-8 28-9 47-5 55 6 12 18 20 36 25l16 5-3 12-161-43 3-12 17 4c19 5 35 3 46-7 7-6 14-22 21-47l86-322c-9-19-17-32-22-39-6-7-15-14-27-22-6-4-16-7-29-11l3-13zM4411 9312l2-13 18 2c20 2 35-3 45-15 6-7 10-24 13-51l32-307c3-30 2-49-4-57-8-11-21-18-39-20l-18-2 1-13 194 21c71 7 124 21 160 41 35 20 62 50 81 90 18 40 25 85 20 134-7 66-33 119-78 160-50 44-122 62-214 52l-213-22zm140-20c29 10 53 15 74 18 54 5 101-9 141-43 39-35 63-85 70-150 7-66-6-119-38-161s-76-65-132-71c-21-2-45-2-73 2l-42 405zM5163 8907l4 189 105-2c27-1 45-5 54-14 12-11 19-30 20-57h13l3 166h-13c-4-23-8-38-11-44-5-8-12-15-21-19-10-5-25-7-45-6l-105 1 3 158c0 21 1 34 3 39 2 4 6 8 10 10 5 3 14 4 27 4l81-2c27 0 47-2 59-6s24-12 35-23c14-15 29-37 44-67h14l-39 121-369 6v-13h17c11-1 22-3 32-9 7-4 12-10 15-17 2-8 3-23 3-46l-5-311c-1-30-4-49-10-56-9-9-23-14-43-13h-17v-13l368-6 7 104h-13c-6-25-12-42-18-51-6-10-15-17-27-21-9-4-26-5-50-5l-131 3zM5573 9345l-2-13 18-3c20-4 33-13 39-27 3-8 3-26-2-53l-54-304c-5-29-11-47-19-53-11-9-25-12-43-9l-18 4-2-13 192-34c70-13 125-14 165-4 39 9 73 31 102 64s48 74 57 123c11 66 1 124-31 175-36 57-100 93-191 110l-211 37zm128-58c31 1 56 0 76-3 54-10 95-36 124-81 29-44 37-98 26-162-11-66-38-114-80-145s-91-42-147-32c-21 4-44 11-69 22l70 401zM6365 8719l88-95 11-4 145 377c9 25 16 40 21 45 4 6 10 9 18 10 8 0 22-3 42-10l5 12-168 64-4-12c20-8 33-15 38-21 5-5 8-11 8-18 1-6-4-23-15-49l-92-241c-13-33-22-53-27-61-5-7-9-11-15-13-5-1-11-1-16 1-8 3-18 11-30 23l-9-8zM6720 8517l231-113 6 12 65 497-36 17-60-450-119 58c-23 12-39 23-46 34-13 18-20 40-21 65l-11 1-9-121zM7265 8491c-49-6-83-14-102-25-19-10-34-23-45-40-16-27-20-56-12-88 9-31 30-58 63-79 33-20 65-28 96-23 31 6 54 20 68 43 9 15 13 33 12 56 0 22-11 55-32 98 52 5 89 12 110 20 28 11 49 28 63 50 17 29 22 60 13 94-9 33-32 61-67 83-38 25-76 31-113 21-29-9-51-25-65-48-11-18-16-39-15-64 1-26 10-58 26-98zm27-61c10-37 15-63 13-80-1-16-7-32-17-48-13-21-29-34-48-38-19-5-39-1-59 12-21 13-33 29-39 49-5 20-3 37 7 53 6 10 15 19 27 26s26 13 41 16l75 10zm-6 64c-8 24-11 47-8 68 2 22 9 42 21 61 16 26 36 42 60 49 23 6 46 3 68-11 21-13 35-30 40-50 6-20 3-39-8-57-9-14-21-24-35-31-28-12-74-22-138-29zM7464 8113l59-115 9-7 243 322c16 22 27 35 33 38 6 4 12 6 20 4 8-1 21-8 38-21l8 11-144 108-8-11c18-14 29-24 32-31 3-6 4-13 3-19-2-6-11-21-28-44l-156-206c-21-27-35-45-43-51-6-5-11-8-17-8s-11 2-16 5c-7 5-14 16-22 31l-11-6zM8670 5942c19-80-31-161-111-180-81-18-161 32-180 112s31 161 111 180c81 19 161-32 180-112zM6758 8313c18-80-32-161-112-180-80-18-161 32-180 112s32 161 112 180 161-31 180-112zM3711 8298c18-80-32-161-112-179-80-19-161 31-180 111-19 81 31 161 112 180 80 19 161-31 180-112zM1823 5907c18-81-32-161-112-180s-161 31-180 112c-19 80 32 161 112 179 80 19 161-31 180-111zM2516 2939c19-80-32-161-112-180s-161 32-180 112c-18 80 32 161 112 180 80 18 161-32 180-112zM5268 1631c19-80-32-161-112-180-80-18-161 32-180 112-18 80 32 161 112 180s161-32 180-112zM8006 2968c19-81-31-161-111-180-81-19-161 31-180 112-19 80 31 161 112 179 80 19 161-31 179-111zM8682 4744c-4-36-37-63-73-59-37 4-63 37-60 73 4 37 37 64 74 60 36-4 63-37 59-74zM8699 5007c-3-37-36-64-73-60-36 4-63 37-59 74 4 36 37 63 73 59 37-4 63-37 59-73zM8697 5269c-4-36-36-63-73-59s-63 37-59 73c3 37 36 64 73 60 36-4 63-37 59-74zM8676 5531c-4-36-37-63-74-59-36 4-63 37-59 73 4 37 37 63 73 59 37-3 64-36 60-73zM8495 6297c-3-36-36-63-73-59-36 4-63 37-59 73 4 37 37 64 73 60 37-4 63-37 59-74zM8397 6540c-4-36-36-63-73-59s-63 37-59 73c3 37 36 64 73 60 36-4 63-37 59-74zM8282 6778c-4-37-37-64-73-60-37 4-64 37-60 74 4 36 37 63 74 59 36-4 63-37 59-73zM8148 7004c-4-37-37-64-74-60-36 4-63 37-59 74 4 36 37 63 73 59 37-4 64-37 60-73zM7999 7221c-4-37-37-64-73-60-37 4-63 37-60 74 4 36 37 63 74 59 36-4 63-37 59-73zM7834 7424c-4-36-37-63-73-59-37 4-63 37-59 73 3 37 36 64 73 60 36-4 63-37 59-74zM7653 7615c-4-36-37-63-73-59-37 4-64 37-60 73 4 37 37 63 74 59 36-3 63-36 59-73zM7460 7794c-4-37-37-64-73-60-37 4-64 37-60 74 4 36 37 63 74 59 36-4 63-37 59-73zM7253 7956c-3-37-36-64-73-60-36 4-63 37-59 73 4 37 36 64 73 60s63-37 59-73zM7035 8102c-4-36-37-63-74-59-36 4-63 37-59 73 4 37 37 64 73 60 37-4 64-37 60-74zM6323 8438c-4-36-37-63-73-59-37 4-64 37-60 73 4 37 37 64 74 60 36-4 63-37 59-74zM6071 8514c-3-36-36-63-73-59-36 4-63 37-59 73 4 37 37 63 73 60 37-4 63-37 59-74zM5815 8571c-4-36-37-63-73-59-37 3-64 37-60 73 4 37 37 63 74 59 36-3 63-36 59-73zM5555 8609c-4-37-37-63-73-60-37 4-64 37-60 74 4 36 37 63 74 59 36-4 63-37 59-73zM5291 8626c-4-36-37-63-73-59-37 4-63 37-59 73 3 37 36 63 73 60 36-4 63-37 59-74zM5029 8624c-4-36-37-63-74-59-36 4-63 37-59 73 4 37 37 63 73 59 37-3 63-36 60-73zM4767 8602c-4-36-37-63-74-59-36 4-63 37-59 73 4 37 37 64 73 60 37-4 64-37 60-74zM4507 8561c-3-36-36-63-73-59s-63 37-59 73c3 37 36 63 73 60 37-4 63-37 59-74zM3294 8075c-4-37-37-64-73-60-37 4-63 37-59 74 3 36 36 63 73 59 36-4 63-37 59-73zM3077 7926c-4-37-37-63-73-59-37 3-63 36-60 73 4 37 37 63 74 59 36-3 63-36 59-73zM2873 7761c-3-36-36-63-73-59s-63 37-59 73c4 37 36 63 73 59 37-3 63-36 59-73zM2683 7580c-4-37-37-63-74-60-36 4-63 37-59 74 4 36 37 63 73 59 37-4 64-37 60-73zM2504 7387c-3-37-36-63-73-60-37 4-63 37-59 74 3 36 36 63 73 59s63-37 59-73zM2342 7180c-3-36-36-63-73-59s-63 37-59 73c3 37 36 63 73 60 37-4 63-37 59-74zM2196 6962c-4-37-37-64-74-60-36 4-63 37-59 74 4 36 37 63 73 59 37-4 63-37 60-73zM2065 6732c-3-36-36-63-73-59-36 4-63 37-59 73 4 37 37 63 73 59 37-3 63-36 59-73zM1954 6495c-4-37-37-63-73-60-37 4-64 37-60 74 4 36 37 63 74 59 36-4 63-37 59-73zM1860 6250c-4-37-37-64-74-60-36 4-63 37-59 74 4 36 37 63 73 59 37-4 63-37 60-73zM1691 5482c-4-37-37-64-74-60-36 4-63 37-59 74 4 36 37 63 73 59 37-4 63-37 60-73zM1672 5218c-4-36-37-63-74-59-36 4-63 37-59 73 4 37 37 63 73 59 37-3 64-36 60-73zM1674 4955c-4-36-37-63-74-59-36 4-63 37-59 73 4 37 37 64 73 60 37-4 64-37 60-74zM1695 4694c-3-37-36-64-73-60s-63 37-59 74c4 36 36 63 73 59s63-37 59-73zM1737 4434c-4-36-37-63-74-59-36 4-63 37-59 73 4 37 37 63 73 60 37-4 64-37 60-74zM1796 4179c-4-37-37-63-73-60-37 4-63 37-59 74 3 36 36 63 73 59 36-4 63-37 59-73zM1876 3927c-4-36-37-63-74-59-36 4-63 37-59 73 4 37 37 64 73 60 37-4 64-37 60-74zM1974 3684c-4-36-37-63-74-59-36 4-63 37-59 73 4 37 37 64 73 60 37-4 64-37 60-74zM2089 3447c-4-37-37-63-73-59-37 3-64 36-60 73s37 63 74 59c36-3 63-36 59-73zM2223 3221c-4-37-37-63-73-59-37 4-63 36-59 73 3 37 36 63 73 59 36-3 63-36 59-73zM2911 2431c-4-36-37-63-73-59-37 4-64 37-60 73 4 37 37 63 74 60 36-4 63-37 59-74zM3118 2269c-4-36-37-63-74-59-36 4-63 37-59 73 4 37 37 63 73 60 37-4 64-37 60-74zM3336 2122c-4-36-36-63-73-59s-63 37-59 73c3 37 36 64 73 60s63-37 59-74zM3566 1992c-4-36-37-63-74-59-36 4-63 37-59 73 4 37 37 63 73 60 37-4 64-37 60-74zM3803 1881c-4-37-37-64-73-60-37 4-64 37-60 74 4 36 37 63 74 59 36-4 63-37 59-73zM4048 1786c-4-36-37-63-73-59-37 4-63 37-60 73 4 37 37 64 74 60 36-4 63-37 59-74zM4300 1711c-4-37-37-64-74-60-36 4-63 37-59 74 4 36 37 63 73 59 37-4 64-37 60-73zM4556 1654c-4-37-37-64-73-60-37 4-63 37-60 74 4 36 37 63 74 59 36-4 63-37 59-73zM4816 1617c-4-36-36-63-73-59s-63 37-59 73c3 37 36 64 73 60 36-4 63-37 59-74zM5604 1622c-4-36-36-63-73-59s-63 37-59 73c3 37 36 63 73 60 37-4 63-37 59-74zM5864 1663c-4-36-37-63-74-59-36 4-63 37-59 73 4 37 37 64 73 60 37-4 64-37 60-74zM6119 1723c-4-36-37-63-73-59-37 4-63 37-60 73 4 37 37 63 74 59 36-3 63-36 59-73zM6371 1802c-4-36-37-63-74-59-36 4-63 37-59 73 4 37 37 64 73 60 37-4 63-37 60-74zM6614 1901c-4-37-37-64-74-60-36 4-63 37-59 74 4 36 37 63 73 59 37-4 63-37 60-73zM6851 2016c-4-37-37-63-73-60-37 4-64 37-60 74 4 36 37 63 74 59 36-4 63-37 59-73zM7077 2150c-4-37-37-63-73-59-37 4-64 36-60 73s37 63 74 59c36-3 63-36 59-73zM7294 2299c-4-37-37-64-73-60-37 4-64 37-60 74 4 36 37 63 74 59 36-4 63-37 59-73zM7498 2464c-4-37-37-64-74-60-36 4-63 37-59 74 4 36 37 63 73 59 37-4 64-37 60-73zM8176 3263c-4-36-37-63-74-59-36 4-63 37-59 73 4 37 37 63 73 59 37-3 63-36 60-73zM8306 3493c-4-37-37-64-74-60-36 4-63 37-59 74 4 36 37 63 73 59 37-4 64-37 60-73zM8417 3730c-4-37-37-63-73-60-37 4-63 37-60 74 4 36 37 63 74 59 36-4 63-37 59-73zM8512 3975c-4-37-37-63-74-59-36 3-63 36-59 73 4 36 37 63 73 59 37-4 63-36 60-73zM8587 4226c-3-36-36-63-73-59s-63 37-59 73c3 37 36 64 73 60s63-37 59-74zM8644 4483c-4-37-37-63-73-59-37 3-63 36-60 73 4 36 37 63 74 59 36-4 63-36 59-73z"/><path d="M8682 4743c-4-37-37-63-73-59-37 3-64 36-60 73 4 36 37 63 74 59 36-4 63-36 59-73zM4252 8502c-4-37-37-64-73-60-37 4-64 37-60 74 4 36 37 63 74 59 36-4 63-37 59-73zM4001 8422c-4-36-37-63-74-59-36 4-63 37-59 73 4 37 37 64 73 60 37-4 63-37 60-74z"/><path d="M2379.322 3682.182c-39.795 50.497-79.59 84.405-119.386 186.865-85.123 121.393-113.114 254.213-129.767 389.3M2005.593 4512.69c-98.48 237.963-23.18 551.431-83.05 866.844M2182.076 4388.114c-6.338 177.825 133.183 239.732 176.483 570.975" fill="none" stroke="#000" stroke-width="18.298432719999997"/><path d="M2558 2582v4269c270 1222 2031 1061 2562 1611 531-550 2292-389 2562-1611V2582H2558z" fill="none" stroke="#000" stroke-width="24.861"/><path d="M7274.782 5933.639l6.489-44.121 106.408-2.595-68.776-50.61 19.465-67.478-71.372 22.06 3.893-105.111-60.991 58.395-93.432-64.883c15.762 41.862 31.976 83.5 20.762 138.85z" fill="#fb0" stroke="#000" stroke-width="13.726"/><path d="M6949.105 5794.727c-62.397 3.087-71.436 62.493-58.319 106.77l52.637 24.224a404.354 404.354 0 015.084 4.785c-32.598 19.714-73.445-12.847-150.732-11.963-21.642-6.44-36.546-13.92-53.235-20.038 8.227 17.677-41.682 72.619 87.927 78.955l73.572-16.748 72.974 15.851c-4.622 12.488-36.17 13.07-99.591 1.496l7.476 55.627c22.09 13.063 43.838 26.166 38.88 59.515 19.971 46.177-13.778 44.363-62.506 28.711l-108.863 54.431c-22.954 21.59-52.432 18.98-83.142-15.551-28.078-40.582-73.319-77.85-69.983-124.713-8.018-71.183-42.692-95.483-77.758-119.33-16.854-17.758-21.892-23.83-54.73-33.795l19.439 58.917c-46.08-21.89-81.223-4.93-97.198 21.533 25.4 3.057 56.376 1.57 62.207 20.935 15.244 16.004-.459 18.114-15.552 20.636-58.262-3.61-66.133 17.975-69.983 41.571 21.628-9.23 43.27-20.603 64.899 10.468 12.676 117.88 126.365 170.02 209.051 286.51l-55.926 14.356c-75.064-15.883-77.473-39.744-93.311-62.207-78.123-39.193-94.366-16.36-127.405-10.467 58.583 15.184 87.441 28.857 98.694 41.57-103.259-2.782-101.606 34.782-119.33 64.9l54.431-12.86c27.04-13.095 43.847-.677 57.123 20.635-103.639-5.739-75.703 108.735-57.123 127.106 8.04-85.077 33.665-69.985 62.207-38.88 5.037 38.425 44.378 35.846 83.143 33.796 110.75-11.677 172.01-31.616 199.78-57.123 33.287 38.946 61.219 53.984 85.834 54.73 4.17 1.576 9.323 3.182 14.056 4.785 19.41 129.269 155.264 121.383 281.726 124.714 3.61-28.81 1.255 18.454-26.019 43.664l5.383-12.56c-115.433 2.434-248.094-27.066-311.633 72.674-7.064 61.208-38.322 86.194-72.675 106.47-.344 61.422-8.604 83.134-15.552 111.553 28.549-7.66 57.286-32.8 85.834-75.067 28.971-46.654 50.056-47.98 72.376-54.73-17.54 40.079-40.467 80.54-17.945 119.629 27.587-52.397 58.806-86.278 93.31-104.077.099 12.91-1.377 25.968-3.887 38.88 9.284-59.299-27.708-13.866-63.702 29.308 3.927 29.837 48.918 52.529-32.898 97.199-64.445-8.017-84.751-2.827-101.087 3.589l32.599 10.467c-64.353 2.447-42.149 7.422-50.842 9.87l41.87 9.27c-66.918 4.566-53.225 14.376-73.273 23.627l216.828 9.272c33.33.296 68.157 2.198 82.543-16.45 16.102-32.678 25.112-35.975 36.487-106.469-31.182-33.112-13.941-79.783-12.86-104.077 7.72-5.532 15.318-11.064 23.328-16.748 2.538 8.318 5.448 16.818 8.673 25.42-3.782 39.128-12.845 79.086 23.328 111.555l41.57-116.638c-6.57 48.442-14.866 99.031 5.384 113.946 25.07-10.393 40.173-40.656 51.141-79.254-5.716 29.493-4.691 54.377 16.15 76.862 14.07-39.385 21.378-65.005 28.711-90.918 4.684-4.094 8.602-8.336 12.262-12.561l-20.038 40.973c15.124 23.837 35.106 33.331 57.123 36.486-39.32 37.78-34.483 49.15-41.571 67.59-52.298-4.7-102.354-6.35-137.573 12.86l40.374 9.571c-57.387 12.498-58.223 33.496-59.814 54.431l61.01-22.43c-26.945 16.856-47.327 35.608-46.954 49.347l54.731-10.468c88.68-7.162 114.555-7.346 142.657-7.776 47.013-1.286 73.846-32.76 93.31-75.366 7.368-29.549 21.908-60.513 80.45-101.086 22.055-62.665-.554-96.505-96.001-83.142-44.272 27.608-74.843 10.352-98.394-31.104l-2.692 5.682c4.306-18.252 6.236-36.767 10.467-55.029 5.74 39.577 11.236 79.324 77.758 31.104 28.63-30.37 43.045-58.904 47.852-85.236 38.833 9.616 75.912 3.884 107.965-13.458 126.875-69.863 90.395-243.189-52.038-381.317-38.052-53.738-108.38-242.33 20.635-272.455 52.15 3.912 79.439 50.613 83.143 137.573-27.868 46.968 6.772 78.974 31.104 90.619 86.66 14.948 62.419-82.225 38.878-77.759-31.57 9.934-41.305-87.082-54.43-132.489-9.844-27.218-52.155-66.97-106.47-66.394-32.59.345-69.277 15.413-106.17 56.226-44.59 75.524-52.868 200.208 132.19 412.42 69.78 122.052-8.978 182.846-102.582 181.836-15.55-35.128-47.29-62.004-76.563-77.758-65.491-27.37-137.881-48.702-129.798-142.957-4.674-2.913-14.65-4.866-27.813-6.28-.249-2.204-.201-4.388-.593-6.58l62.207 18.243-17.945-137.573 54.431 12.86c-1.548-38.266 26.548-89.127-18.243-108.862 66.293-21.578 29.561-52.523 26.02-80.45 33.365-5.44 39.157-29.454 31.103-62.507v-106.17c-82.518-124.841-145.371-132.351-207.556-135.181-26.005 11.907-55.203 20.157-122.022-15.552z" fill="#da251d"/><path d="M6930.9 6197.066c-71.154 4.116-127.378 62.977-184.27 119.385l-160.911 41.526c-75.064-15.883-77.594-39.825-93.432-62.288-78.124-39.194-94.133-16.274-127.171-10.382 58.582 15.185 87.369 28.813 98.622 41.526-103.26-2.782-101.66 34.767-119.385 64.883l54.502-12.977c27.039-13.095 43.821-.55 57.097 20.763-103.638-5.738-75.678 108.8-57.097 127.172 8.039-85.077 33.746-70.037 62.288-38.93 5.037 38.422 44.286 35.79 83.05 33.739 110.75-11.676 172.073-31.59 199.842-57.097 81.85 95.764 131.128 48.205 179.078-5.191 9.678 87.24 47.546 75.82 98.623 18.167 5.467 88.69 46.965-15.692 68.776-38.93 21.102 90.379 60.771 27.4 50.61-28.548l62.288 18.167-18.167-137.553 54.502 12.977c-1.548-38.267 26.624-89.27-18.168-109.005 66.294-21.578 29.495-52.528 25.953-80.455 33.366-5.44 39.199-29.235 31.145-62.288v-106.41c-82.518-124.84-145.444-132.127-207.627-134.957-26.005 11.908-55.163 20.137-121.981-15.572-62.398 3.086-71.29 62.448-58.173 106.724l52.667 24.118c60.125 55.489 48.626 72.928-64.123 52.352l7.34 55.577c22.09 13.063 43.889 26.344 38.93 59.693 19.972 46.177-13.56 44.2-62.288 28.549l-109.004 54.502c-22.954 21.591-52.341 18.959-83.05-15.572-28.079-40.581-73.411-77.712-70.075-124.576-8.018-71.183-42.794-95.539-77.86-119.386-16.854-17.758-21.664-23.774-54.502-33.74l19.426 58.803c-46.08-21.89-81.31-4.81-97.287 21.653 25.4 3.057 56.459 1.398 62.289 20.763 15.244 16.003-.479 18.241-15.572 20.763-58.262-3.61-66.225 17.93-70.075 41.525 21.628-9.23 43.256-20.69 64.884 10.381 12.734 118.415 127.447 170.474 210.222 288.083" fill="none" stroke="#000" stroke-width="13.726"/><path d="M6891.969 5841.504c29.644 8.219 37.106 16.437 46.717 24.656" fill="none" stroke="#000" stroke-width="9.151"/><path d="M7016.545 5838.909c32.58.277 98.762 46.211 124.577 46.716M7115.147 5878.246c-51.472 31.027-59.386 8.372-60.561-27.528M7169.67 6422.86c-8.086 94.256 64.278 115.375 129.768 142.744 63.309 34.07 137.75 120.807 36.335 228.39-66.524 48.219-72.12 8.433-77.861-31.144-9.622 41.525-6.602 84.655-49.312 121.98-7.333 25.913-14.479 51.452-28.548 90.837-28.561-30.814-20.287-65.958-7.787-111.6-11.66 54.54-27.446 100.827-59.693 114.196-20.249-14.916-11.76-65.754-5.19-114.195l-41.525 116.79c-36.173-32.469-27.14-72.472-23.359-111.6-23.889-63.735-32.43-121.075 25.954-150.53 60.675-45.85 89.494-91.701 46.716-137.552M7125.55 6648.655c-128.914-3.395-267.763 4.898-282.892-132.363" fill="none" stroke="#000" stroke-width="13.726"/><path d="M7374.703 6643.464c94.137 1.55 173.895-59.095 103.813-181.674-185.057-212.212-176.952-337.134-132.363-412.659 98.384-108.832 197.069-33.168 212.819 10.382 13.125 45.406 22.93 142.295 54.5 132.362 23.54-4.466 47.732 92.808-38.93 77.86-24.33-11.645-59.01-43.869-31.142-90.837-3.703-86.96-30.903-133.64-83.052-137.553-129.015 30.125-58.814 218.773-20.762 272.51 142.433 138.13 178.782 311.654 51.907 381.516-32.387 17.522-69.728 23.012-109.005 12.976M7104.787 6679.799c-115.433 2.435-247.903-27.07-311.441 72.67-7.064 61.207-38.317 86.132-72.67 106.408-.344 61.422-8.624 83.18-15.571 111.6 28.548-7.662 57.097-33 85.646-75.265 28.97-46.654 50.349-47.753 72.669-54.502-17.54 40.078-40.69 80.296-18.167 119.385 27.585-52.398 58.927-86.014 93.433-103.813.162 21.628-3.629 43.255-10.382 64.883 41.09-31.181 71.42-53.037 106.41-77.86M7250.126 6812.161c23.552 41.456 54.352 58.752 98.623 31.144 95.446-13.363 118.08 20.386 96.028 83.05-58.544 40.574-73.09 71.67-80.456 101.22-19.465 42.605-46.42 73.98-93.432 75.264-28.101.43-54.062.624-142.744 7.786l-54.502 10.381c-.373-13.738 19.953-32.455 46.9-49.311l-61.082 22.598c1.59-20.936 2.305-42.004 59.693-54.502l-40.32-9.622c35.219-19.21 85.254-17.676 137.552-12.976 7.09-18.441 2.204-29.698 41.526-67.48-22.018-3.153-41.974-12.496-57.098-36.334" fill="none" stroke="#000" stroke-width="13.726"/><path d="M6871.068 6924.3c3.929 29.837 48.783 52.595-33.033 97.264-64.445-8.016-84.6-2.745-100.936 3.67l32.681 10.252c-64.353 2.447-42.338 7.489-51.032 9.936l41.948 9.176c-66.918 4.564-53.098 14.606-73.146 23.857l216.551 9.176c33.33.297 68.197 2.13 82.584-16.517 16.101-32.678 25.328-35.946 36.703-106.44-31.411-33.356-13.693-80.466-12.846-104.605M7283.866 5888.22c-42.157-54.804-91.258-74.893-140.149-96.027M7212.412 5975.51c15.232 6.194 27.946 15.537 23.858 45.88-8.385-16.01-19.761-20.057-33.034-16.516 12.356 19.698 9.675 54.062 7.341 88.089-7.506-24.259-13.589-55.63-25.693-56.891 2.372 18.068 1.206 42.034-11.01 84.418-3.169-21.228-3.077-47.889-20.188-45.88-22.486 17.922-29.469 42.045-27.528 69.738-80.392-29.488-174.357-118.34-220.221-100.935M7185.801 6304.926c-2.807 45-19.42 73.278-35.786 101.853l-18.35-128.463c-13.9 47.387-41.438 72.043-69.738 95.43 9.506-69.173 13.648-127.618 3.67-157.826-29.189 57.094-50.38 75.496-73.407 102.77 7.559-49.776 22.708-111.697 7.34-124.793-20.414 19.89-44.456 25.266-69.736 25.693 5.66-22.17 9.309-39.993 5.82-89.609M6707.737 6190.227c11.86 32.325 32.193 39.223 58.726 27.528-74.937 33.056-42.844 67.158-44.044 100.935M6949.981 5929.631c-32.844 21.659-73.85-11.91-152.32-11.01-21.641-6.44-36.532-14.07-53.221-20.188 8.226 17.677-41.52 72.577 88.09 78.913l73.407-16.517 77.077 16.517" fill="none" stroke="#000" stroke-width="13.726"/><path d="M6267.542 3421.497c45.423-27.94 156.875-54.53 215.413-18.167 57.07 48.286 141.477 54.656 250.45 23.358 119.415-35.103 224.728 3.124 327.013 57.097 32.055 26.942 61.539 46.906 105.112 105.111 15.883 21.66 57.496 71.97 32.441 109.004 24.084 64.019 39.899 128.037 41.526 192.056 5.984 76.842 29.056 107.546 51.906 138.85 28.8 69.026-21.087 77.443-51.906 120.683l-85.647-3.893c-8.907-2.258-17.584-5.207-29.846 2.596l5.19-11.68c-10.72-1.975-16.41 6.11-22.06 14.275-.851-9.657 4.762-17.157 14.275-23.358l-16.87 5.19c17.919-25.918 38.916-46.911 73.967-45.418 19.888-.862 24.532-31.718-18.167-36.334-65.41-6.78-115.72-30.983-136.256-89.54-69.57 47.428-131 100.603-171.292 168.697-7.721 11.044-12.21 23.58-41.526 24.656-26.25 1.118-32.26-.293-83.05 3.893-19.563-2.827-24.476 3.136-59.694-9.084-3.74-2.617-13.995-4.303-29.846-5.19 1.167-9.49 18.05-9.157 32.442-10.382-12.544-2.704-25.089-4.881-37.633 2.596 5.229-11.935 12.626-20.772 29.847-15.572-11.97-17.563-25.241-16.89-38.93-10.382 13.999-10.634 26.535-31.017 45.418-9.083 12.408-4.36 29.004-7.673 68.777-5.191 10.35-1.116 18.885-4.275 15.572-20.763-1.32-56.665-13.209-113.33 2.595-169.995l-146.636-2.595c13.177 50.641 53.37 109.668 35.037 150.53l-23.358 45.418c-3.326 11.265-8.45 22.29-29.847 31.144h-114.195c-5.624-.149-11.246 5.881-16.87 11.68 1.207-10.928 8.476-14.279 14.275-19.466-6.618 1.952-12.98 2.612-20.762 10.382 1.96-9.561 5.413-13.617 9.083-16.87-9.28.613-9.134 4.997-12.977 7.786 2.045-6.488 4.99-12.977 14.275-19.465 18.435-17.199 36.367-35.405 64.883-32.442 13.933-1.554 19.326-7.99 9.084-23.358-37.08-35.367-72.985-61.354-111.6-109.004-6.365-6.044-12.71-12.38-20.763 5.19-31.085 48.68-77.774 92.68-125.873 136.256-29.025 25.967-56.454 52.584-99.92 72.67-22.957 10.817-25.123 19.324-33.74 28.548-24.095.406-32.854-11.734-73.967 2.596-7.558-.28-10.226 2.699-27.252-3.894-8.57-12.67-22.767-6.582-36.334-2.595.383-5.181 5.238-11.256 14.274-18.167-17.61 2.608-32.537 7.363-41.526 16.87l12.978-20.763c-9.95 0-19.033 5.19-27.252 15.572 3.729-15.455 17.997-32.574 54.502-53.205 8.644-4.326 12.405-9.35 44.121-10.381 12.39-5.022 25.532-.287 36.335-25.953 7.832-18.236 17.333-35.804 33.739-50.61 29.34-27.287 43.679-62.076 59.693-96.027 13.279-38.791 19.97-74.948 24.656-110.302-48.352 7.25-96.735 14.393-134.958 57.098l3.893-22.06-37.632 48.013-10.382-5.19-23.358 32.441c-15.26-25.644-36.654-31.86-62.288-24.656-19.23 11.624-81.359 51.266-84.348-6.488l35.037-53.205-49.312 25.954c-18.877 4.945-40.391-.656-66.181-23.358-10.626-10.157-6.195-16.774 3.893-22.06 17.77-13.49 81.755-78.294 66.182-98.623-6.544-7.773-17.143-14.531-3.893-27.252l45.417-75.264c1.27-42.856 14.952-77.002 37.634-57.098 10.148 9.15 20.22 18.605 33.739 14.275 6.891-.057 9.95-7.786 11.678-18.168 13.443-30.977 29.859-27.76 46.717-19.465 11.592 13.954 16.611 3.814 23.357 0 25.794-24.723 41.334-35.597 88.242-55.8 52.55-24.223 87.542-48.446 123.279-72.67z" fill="#da251d" stroke="#000" stroke-width="18.302"/><path d="M6410.068 3938.207c16.16-26.827 28.486-75.697 34.869-158.743M6220.826 3827.667c6.44-47.782 13.537-92.966 13.625-131.064M6757.297 3904.525c25.13-70.38 54.606-147.15 96.792-231.28M7024.083 3961.327c35.276-25.042 72.445-50.084 105.6-75.127M5980.432 3584.679c-4.076 19.919-2.633 42.942 20.439 56.124M5904.935 3851.954c15.018-9.055 25.47-13.543 34.409-16.517-10.375 37.052-28.84 62.864-64.231 65.15M6609.3 3902.88c-41.816-.657-76.963-2.468-106.816-5.726M6123.5 3695.305c12.5 33.16 23.95 66.95 19.466 110.302" fill="none" stroke="#000" stroke-width="18.302"/><path d="M5939.344 3742.76c-20.83 17.062-40.856 2.318-36.703-8.258" fill="none" stroke="#000" stroke-width="9.151"/><path d="M5945.767 3748.266c-14.26-25.939-33.164-37.017-59.644-23.857" fill="none" stroke="#000" stroke-width="18.302"/><path d="M4360.062 5704.63c-59.75 1.35-110.042 38.201-122.32 126.208-34.82 137.373-156.804 86.477-179.145 15.552l92.711 776.092 111.854 31.104c5.871 42.833 21.812 63.293 58.917 37.683l.9-13.16c15.001 81.067 48.214 132.896 89.422 78.956 2.548-.464 6.793 4.149 11.963 13.159-16.602 74.955 2.838 93.991 31.403 98.694v-3.29a619.221 619.221 0 0110.167 73.572c13.844 24.304 27.73 36.703 41.572 12.86l.296-3.589c20.74 68.488 67.51 32.702 75.068-17.047-.947-154.651 86.665-399.924 90.918-602.332 32.494-239.753-5.862-433.157-153.125-555.377-47.762-43.9-107.88-70.278-160.6-69.086z" fill="#fb0"/><path d="M3265.275 7135.094c-16.666 19.1-13.266 72.276-29.363 121.122-9.572 29.05 24.847 68.616 55.055 73.408 83.54 13.25 150.745-97.616 95.43-187.189-21.253-34.415-94.53-37.818-121.122-7.34z" fill="#009645" stroke="#000" stroke-width="13.723824539999999"/><path d="M4106.585 7266.116c20.48-16.437 24.427-32.874 20.762-49.311 6.583-58.933-14.784-42.322-23.358-58.395-25.389-49.761-45.158-26.463-67.479-36.335l-90.837-9.084-92.134 155.72 151.827 79.158z" fill="#4a4209" stroke="#000" stroke-width="13.723824539999999"/><path d="M3703.01 7416.646l-319.228-2.596c-31.449-13.056-21.573-32.016-5.19-51.906 12.45-7.393 4.395-13.983 67.479-23.358 46.951 3.255 59.414-14.182 72.669-31.144 34.875-55.286 53.536-37.612 75.265-33.74 25.36 17.803 48.998 26.98 67.479 10.381 34.735-6.868 38.219-26.237 38.93-46.716 8.159-48.155 38.562-70.359 88.241-70.074 52.47-28.443 106.241-66.65 145.34 5.191 44.4 45.851 47.558 91.702 44.12 137.553z" fill="#4a4209" stroke="#000" stroke-width="13.723824539999999"/><path d="M4281.966 7428.723l-601.94-7.34c6.658-22.023 3.15-44.045 66.066-66.067 31.572-2.745 62.727-6.01 80.749-25.692-1.548-16.275 26.149-19.257 62.395-18.352 35.48-13.914 70.961-40.495 106.441-25.693 23.246-26.26 46.492-47.626 69.737-25.692 61.712-10.327 93.612 9.157 106.44 47.714 12.097 16.319 25.116 29.872 44.045 25.693 35.25-1.26 51.178 45.785 66.067 95.43z" fill="#4a4209" stroke="#000" stroke-width="13.723824539999999"/><path d="M3008.35 7219.513c-89.868-25.063 65.404-139.805 113.78-106.441 34.075 23.5-31.065 129.508-113.78 106.44z" fill="#009645" stroke="#000" stroke-width="13.723824539999999"/><path d="M3081.756 7047.005c-49.29 54.353-5.28 115.59 77.078 117.452 44.64 1.009 100.151 9.138 132.133-22.022 27.67-26.958 47.768-84.98 22.023-113.781-51.529-57.648-179.293-38.924-231.234 18.351z" fill="#009645" stroke="#000" stroke-width="13.723824539999999"/><path d="M3371.715 6999.29c-70.972 43.746-119.988 114.51-29.363 157.826 43.946 21.005 103.641-.867 143.144-29.363 29.784-21.484 70.27-62.005 55.056-95.429-23.757-52.194-121.737-62.065-168.837-33.033zM4579.265 7193.82c93.366-8.183-59.928-272.954-172.507-176.177-66.213 56.918 73.832 184.825 172.507 176.177z" fill="#009645" stroke="#000" stroke-width="13.723824539999999"/><path d="M4480.165 6962.587c18.949 138.339-217.875 138.735-233.644 55.946-22.874-120.094 224.534-122.455 233.644-55.946z" fill="#009645" stroke="#000" stroke-width="13.723824539999999"/><path d="M4167.574 6433.012c-1.874-179.914 47.274-370.033-83.05-524.258-26.465-67.045-77.57-138.787 36.335-179.079 9.003-60.27 31.502-113.886 96.027-18.167 49.63-172.343-98.146-139.544-127.172-124.576-26.79-38.958-60.318-71.18-134.957-62.288-47.566 6.009-97.974 20.545-132.363-12.977l15.573 59.693c-75.445 20.324-74.685 88.59-67.48 160.91-7.563 67.116 5.39 157.678-46.715 173.888-54.928 3.016-94.583-22.332-101.218-109.004-35.724-131.465-208.227-116.03-289.144-55.06-140.816 106.102-199.057 392.221-175.422 584.51l70.074 417.849 38.93 230.985c16.401-1.855 34.671-79.756 37.41-129.43 36.894-.61 101.784-33.315 135.975-110.072 11.087-24.89 46.42-1.811 73.864 7.664 135.13 46.657 194.382-42.91 258.842-66.626l-38.93 277.701 454.184 5.191-38.93-327.013" fill="#fb0" stroke="#000" stroke-width="13.723824539999999"/><path d="M4270.955 7069.028c-62.867 119.64-292.699-10.623-243.135-88.09 96.722-151.173 289.941-.985 243.135 88.09z" fill="#009645" stroke="#000" stroke-width="13.723824539999999"/><path d="M3542.098 6894.983c-104.08-31.83-101.699 68.029-54.502 129.767 22.89 29.942 76.715 32.434 111.6 18.167 45.664-18.676 99.714-6.437 72.669 38.93-23.94 40.158-49.183 104.45 59.693 96.028 25.147-1.946 50.955-1.062 75.265-7.786 13.802-3.818 26.234-11.544 38.93-18.168 42.96-22.41 56.894 2.461 64.883 18.168 13.49 26.52 51.507 25.514 59.693-7.786 3.362-13.676 16.143-37.81 28.549-31.145 30.736 16.515 58.858 7.218 59.693-31.144.994-45.676-15.015-94.55-44.122-129.767-31.985-38.7-81.588-42.507-137.552-23.358-28.695 9.82-60.627-2.517-90.837-5.19-43.397-3.84-87.009-7.223-129.767-15.572-38.723-7.562-76.465-19.606-114.195-31.144z" fill="#009645" stroke="#000" stroke-width="13.723824539999999"/><path d="M3360.704 6184.47c-4.46 132.216 54.354 286.31 78.913 512.016 7.847 23.327-17.087 142.824-45.88 40.374-36.132-180.344-85.489-351.241-89.923-554.225" fill="#fb0" stroke="#000" stroke-width="13.723824539999999"/><path d="M3406.583 6766.223c-.982 38.89-14.085 69.597-44.043 22.022" fill="none" stroke="#000" stroke-width="9.149216359999999"/><path d="M4412.263 6757.047c-99.588 130.36-152.375-356.165-14.681-383.553M4590.276 6015.633c-18.64-110.722-134.035-289.002-300.97-165.166M4333.35 5874.324c84.42-18.132 168.837 39.88 253.256 133.969M3496.508 5745.862c35.545 45.525 80.668 92.966 93.594 133.968-6.407 39.867 14.972 69.631 62.396 89.924 52.817 12.186 48.284 37.607 38.539 64.231-57.47 108.857-28.646 232.943-5.506 356.025" fill="none" stroke="#000" stroke-width="13.723824539999999"/><path d="M4595.806 6085.237c50.084 197.886-3.522 402.685-54.502 607.31-30.417 105.067-32.826 175.124-36.335 246.556 19.103 81.323 69.968 44.156 77.861-7.786-.948-154.65 86.583-399.71 90.836-602.118 32.494-239.754-5.862-433.183-153.125-555.403-101.894-93.654-259.777-108.563-282.892 57.098-34.819 137.373-156.737 86.497-179.078 15.572" fill="none" stroke="#000" stroke-width="13.726"/><path d="M3933.28 5602.717c43.434-27.138 86.866-33.42 130.299-16.516" fill="none" stroke="#000" stroke-width="13.723824539999999"/><path d="M4022.539 5615.564a15.85 15.85 0 11-31.701 0 15.85 15.85 0 1131.7 0z" fill="none" stroke="#000" stroke-width="13.725638199999999"/><path d="M4556.876 6150.12c12.882 188.626-7.763 388.428-77.86 604.714-22.739 76.397-24.848 136.018-12.977 184.27 13.842 24.304 27.684 36.819 41.526 12.976" fill="none" stroke="#000" stroke-width="13.723824539999999"/><path d="M4507.565 6168.288c21.08 190.325-21.053 380.65-75.265 570.974-29.518 101.284-8.83 124.468 23.357 129.767" fill="none" stroke="#000" stroke-width="13.723824539999999"/><path d="M4468.635 6181.264c1.82 172.058-30.36 316.914-62.289 461.97-26.524 114.662 4.188 95.772 15.572 121.982M4419.323 6150.12c-8.955 179.564-46.266 272.075-41.526 436.017-8.562 63.84 3.961 85.51 15.573 109.005" fill="none" stroke="#000" stroke-width="13.723824539999999"/><path d="M3513.55 5820.512c-127.326-72.63-211.652 4.488-257.428 117.682M3235.927 5999.121c-17.168 64.237-23.9 133.047-20.842 189.93-1.25 213.234 38.647 412.753 77.86 612.5 35.706 83.74 75.805 32.629 70.074-18.168-48.077-158.78-87.54-336.513-101.217-570.975" fill="none" stroke="#000" stroke-width="13.726"/><path d="M4094.905 6747.048l12.978 145.34c-104.348 23.556-49.347 100.699-46.717 155.72-.115-67.982 15.74-106.678 57.097-98.623 15.48 47.388 14.782 98.82 2.596 153.125 40.413-36.21 47.444-94.678 46.715-158.316 64.517-20.265 79.828 53.762 109.005 101.218 22.753-111.028-14.97-164.94-116.79-158.315l-18.168-147.935z" fill="#fb0" stroke="#000" stroke-width="13.723824539999999"/><path d="M4237.65 6513.468c-98.222-182.727-210.624-25.37-236.177 106.409l-28.548 233.58c19.811-9.741 40.552-7.379 57.097-59.693l10.381 67.48c10.433-18.526 19.33-26.303 36.335-90.838 12.575 13.462 31.257 78.817 31.144-15.572 15.872 65.289 26.5 78.134 28.549 5.191 7.222 50.325 17.011 72.405 31.143 46.716 19.033-20.303 38.065 6.766 57.098 33.74 38.506-97.611 36.63-208.683 12.977-327.013z" fill="#fb0" stroke="#000" stroke-width="13.723824539999999"/><path d="M3645.912 6920.936c77.744 29.457 81.795-38.515 46.716-59.693-42.085-26.38-120.775-42.664-202.436-111.6-62.764-74.667-61.247-244.402 46.715-358.156 76.734-67.007 215.347-135.954 358.158-205.032 92.895-65.719 179.414-159.327 233.58-394.491 17.52-104.942 25.893-209.25-33.74-308.846-62.822-74.12-138.089-61.13-215.413-33.74-46.555 44.703-144.57 38.835-163.506 10.382-35.092-42.009-64.293-77.654-104.26-46.54-6.526 5.545-46.62 18.215-69.628-10.557 24.313-7.102 39.926-17.2 51.907-28.549-33.394-6.575-68.693-12.673-75.265-25.953l38.93-7.786 31.145-18.168c50.986-34.071 76.601-21.628 98.622-2.595 66.15 77.42 106.978 96.514 186.865 46.716 69.948-33.983 191.99-40.836 269.915 54.502 142.982 191.238 7.872 554.435 2.595 552.807-58.112 121.537-134.789 229.666-280.297 288.083-234.755 88.162-322.143 187.275-363.347 321.822-1.608 60.816-9.767 129.894 81.216 185.974 115.66 34.156 197.458 65.49 167.937 169.587-33.504 50.2-85.37 50.559-153.125 7.786-43.737-37.15-68.528-47.576-90.837-54.502-74.58 3.684-92.968-19.573-114.64-35.129-20.15-15.683-77.07-66.032-106.778-53.036 11.69-21.619 48.746-2.391 83.865-5.267 24.482 12.37 36.408 12.185 83.05 46.716 8.907 15.012 37.064 20.399 75.266 20.763 32.717 4.187 65.009 7.42 116.79 54.502z" fill="#007d8c" stroke="#000" stroke-width="9.149216359999999"/><path d="M4074.59 6769.893c-6.218-40.625.929-47.836 3.67-66.066" fill="none" stroke="#000" stroke-width="9.149216359999999"/><path d="M3871.706 6035.925c-41.207 25.91-49.964 3.142-64.883-10.38M4115.668 6163.097c-39.176 25.953-49.544 51.907-54.502 77.86M3897.66 6318.817c15.571 40.49 31.144 73.962 46.716-7.786M4113.073 6599.114c-7.12 60.828-35.466 57.974-70.074 36.335M3452.464 6136.755c17.18 101.457 40.335 287.592 69.736 198.2 5.568-88.243-2.088-143.428-5.505-209.21M4368.219 6122.074c-20.028 95.669-46.84 193.936-5.506 266.101" fill="none" stroke="#000" stroke-width="13.723824539999999"/><path d="M4321.997 6691.249c-73.89 50.998-64.258-81.022-57.097-207.628 9.477-79.75 33.794-131.306 77.86-145.339M4359.043 6006.457c45.9 22.688 82.472 20.504 99.1-34.868M3391.903 6039.49c22.095.526 42.309-6.609 56.89-36.703M4311.328 6089.04c-33.677 88.761-24.058 194.133-20.186 297.3M3408.419 6147.766c14.352 119.118 23.008 241.653 60.561 346.85M4588.02 7188.256l38.93 46.716M4502.187 7179.139v44.044M4432.45 7131.424l-22.022 27.528M4351.703 7072.698l1.835 40.374M4313.164 7072.698l-22.022 36.704M4368.219 6916.708l1.836-44.045M4327.845 6927.719l-16.517-49.55M3164.34 7164.457l5.505 40.374M3320.33 7327.788v44.045M3408.419 7226.853l33.033 22.023M3245.088 7302.096l-20.187 27.528M3041.382 7223.183l3.671 36.704M3408.419 6980.939l-11.01-53.22M3364.375 7006.631l-29.363-31.198M3179.021 6991.95l-18.352-23.857M3094.603 7035.994l-33.033-34.868M2977.612 7190.851h-22.06" fill="none" stroke="#000" stroke-width="13.723824539999999"/><path d="M3574.044 5373.32c-39.809 5.44-80.557-4.041-121.58-.918 19.57 11.396 19.189 7.502 29.822 12.387l-32.575 1.377c9.145 9.24 23.794 7.467 37.621 7.34 34.155-3.122 83.851-11.651 92.677-5.964 29.283-5.373 50.45-14.329-5.965-14.222z" fill="#f70000" stroke="#000" stroke-width="9.149216359999999"/><path d="M3642.352 5321.018a14.966 7.534-19.249 11-28.337 9.633 14.966 7.534-19.249 1128.337-9.633z"/><path d="M4120.859 5729.675c9.003-60.27 31.502-113.886 96.027-18.167 49.63-172.343-98.146-139.544-127.172-124.576M3560.74 6716.673c-13.496 18.06-27.414 37.512-24.042 71.572 1.45 49.117 26.84 37.702 34.868 20.187l19.519-53.313c17.762-27.963 43.615-10.932 11.863 51.478-12.304 45.836 11.95 60.739 34.869 23.857 6.88-9.447 7.883-25.908 14.144-43.507 5.629-21.405 30.82-33.467 22.133 10.9-31.717 73.902-14.901 64.294 6.969 60.004 70.408-51.64 12.426-135.25 4.47-135.377l40.373-73.703-51.385-1.835-34.869 53.22c-13.992 6.62-52.467-5.73-78.913 16.517z" fill="#fb0" stroke="#000" stroke-width="13.723824539999999"/><path d="M3952.162 6765.216c-40.524-47.808-53.98-140.73-75.265-220.604-29.092-127.712-141.249-244.024-215.413-101.218-57.049 81.169-56.264 129.29-67.48 184.269-31.321 92.012-.99 76.134 20.763 75.265 40.189-6.215 72.268-44.866 98.623-106.41-14.36 46.573-40.309 102.8-15.571 116.791 17.819 4.312 30.592-16.6 41.525-46.716 4.048 44.7-15.098 130.93 46.716 106.409l20.763 33.74c14.706 28.979 29.414 80.242 44.12-23.359 39.118 47.091 71.125 79.963 28.549-36.335 24.223 28.534 48.447 31.098 72.67 18.168z" fill="#fb0" stroke="#000" stroke-width="13.723824539999999"/><path d="M3882.087 6750.941c-8.508-15.232-6.806-57.69-5.19-99.92M3852.241 6783.383c-8.036-27.025-10.5-73.553-11.68-124.576M3715.986 6451.18c-48.739 48.947-64.015 176.245-105.112 250.45M3788.655 6771.704c28.193-59.15 14.387-178.3 20.763-268.618" fill="none" stroke="#000" stroke-width="13.723824539999999"/></g><g transform="matrix(1.04583 0 0 1.04583 -234.676 -234.676)" stroke="#000" stroke-width="32.51"><circle cx="4154" cy="705" r="150" fill="url(#v)"/><circle cx="4448" cy="650" r="150" fill="url(#w)"/><circle cx="4745" cy="616" r="150" fill="url(#x)"/><circle cx="5043" cy="601" r="150" fill="url(#y)"/><circle cx="5342" cy="606" r="150" fill="url(#z)"/><circle cx="5641" cy="631" r="150" fill="url(#A)"/><circle cx="5936" cy="676" r="150" fill="url(#B)"/><circle cx="6229" cy="739" r="150" fill="url(#C)"/><circle cx="3034" cy="1111" r="150" fill="url(#D)"/><circle cx="3303" cy="982" r="150" fill="url(#E)"/><circle cx="3581" cy="870" r="150" fill="url(#F)"/><circle cx="3864" cy="778" r="150" fill="url(#G)"/><circle cx="2058" cy="1795" r="150" fill="url(#H)"/><circle cx="2284" cy="1599" r="150" fill="url(#I)"/><circle cx="2523" cy="1420" r="150" fill="url(#J)"/><circle cx="2773" cy="1256" r="150" fill="url(#K)"/><circle cx="1463" cy="2464" r="150" fill="url(#L)"/><circle cx="1645" cy="2228" r="150" fill="url(#M)"/><circle cx="1844" cy="2005" r="150" fill="url(#N)"/><circle cx="661" cy="5863" r="150" fill="url(#O)"/><circle cx="621" cy="5568" r="150" fill="url(#P)"/><circle cx="601" cy="5269" r="150" fill="url(#Q)"/><circle cx="601" cy="4971" r="150" fill="url(#R)"/><circle cx="621" cy="4672" r="150" fill="url(#S)"/><circle cx="661" cy="4377" r="150" fill="url(#T)"/><circle cx="720" cy="4083" r="150" fill="url(#U)"/><circle cx="797" cy="3794" r="150" fill="url(#V)"/><circle cx="895" cy="3512" r="150" fill="url(#W)"/><circle cx="1010" cy="3236" r="150" fill="url(#X)"/><circle cx="1143" cy="2969" r="150" fill="url(#Y)"/><circle cx="1295" cy="2710" r="150" fill="url(#Z)"/><circle cx="1295" cy="7530" r="150" fill="url(#aa)"/><circle cx="1143" cy="7271" r="150" fill="url(#ab)"/><circle cx="1010" cy="7004" r="150" fill="url(#ac)"/><circle cx="895" cy="6728" r="150" fill="url(#ad)"/><circle cx="797" cy="6446" r="150" fill="url(#ae)"/><circle cx="720" cy="6157" r="150" fill="url(#af)"/><circle cx="2058" cy="8445" r="150" fill="url(#ag)"/><circle cx="1844" cy="8235" r="150" fill="url(#ah)"/><circle cx="1645" cy="8012" r="150" fill="url(#ai)"/><circle cx="1463" cy="7776" r="150" fill="url(#aj)"/><circle cx="4154" cy="9535" r="150" fill="url(#ak)"/><circle cx="3864" cy="9462" r="150" fill="url(#al)"/><circle cx="3581" cy="9370" r="150" fill="url(#am)"/><circle cx="3303" cy="9258" r="150" fill="url(#an)"/><circle cx="3034" cy="9129" r="150" fill="url(#ao)"/><circle cx="2773" cy="8984" r="150" fill="url(#ap)"/><circle cx="2523" cy="8820" r="150" fill="url(#aq)"/><circle cx="2284" cy="8641" r="150" fill="url(#ar)"/><circle cx="6229" cy="9501" r="150" fill="url(#as)"/><circle cx="5936" cy="9564" r="150" fill="url(#at)"/><circle cx="5641" cy="9609" r="150" fill="url(#au)"/><circle cx="5342" cy="9634" r="150" fill="url(#av)"/><circle cx="5043" cy="9639" r="150" fill="url(#aw)"/><circle cx="4745" cy="9624" r="150" fill="url(#ax)"/><circle cx="4448" cy="9590" r="150" fill="url(#ay)"/><circle cx="9639" cy="5121" r="150" fill="url(#az)"/><circle cx="9628" cy="5419" r="150" fill="url(#aA)"/><circle cx="9599" cy="5716" r="150" fill="url(#aB)"/><circle cx="9550" cy="6010" r="150" fill="url(#aC)"/><circle cx="9481" cy="6301" r="150" fill="url(#aD)"/><circle cx="9481" cy="3939" r="150" fill="url(#aE)"/><circle cx="9550" cy="4230" r="150" fill="url(#aF)"/><circle cx="9599" cy="4524" r="150" fill="url(#aG)"/><circle cx="9628" cy="4821" r="150" fill="url(#aH)"/><circle cx="9639" cy="5119" r="150" fill="url(#aI)"/><circle cx="9394" cy="6588" r="150" fill="url(#aJ)"/><circle cx="9287" cy="6867" r="150" fill="url(#aK)"/><circle cx="9162" cy="7139" r="150" fill="url(#aL)"/><circle cx="9019" cy="7402" r="150" fill="url(#aM)"/><circle cx="8860" cy="7654" r="150" fill="url(#aN)"/><circle cx="8685" cy="7897" r="150" fill="url(#aO)"/><circle cx="8287" cy="8342" r="150" fill="url(#aP)"/><circle cx="8067" cy="8544" r="150" fill="url(#aQ)"/><circle cx="7836" cy="8731" r="150" fill="url(#aR)"/><circle cx="8494" cy="8125" r="150" fill="url(#aS)"/><circle cx="7591" cy="8903" r="150" fill="url(#aT)"/><circle cx="7335" cy="9058" r="150" fill="url(#aU)"/><circle cx="7069" cy="9196" r="150" fill="url(#aV)"/><circle cx="6796" cy="9316" r="150" fill="url(#aW)"/><circle cx="6515" cy="9419" r="150" fill="url(#aX)"/><circle cx="6515" cy="821" r="150" fill="url(#aY)"/><circle cx="6796" cy="924" r="150" fill="url(#aZ)"/><circle cx="7069" cy="1044" r="150" fill="url(#ba)"/><circle cx="7335" cy="1182" r="150" fill="url(#bb)"/><circle cx="7591" cy="1336" r="150" fill="url(#bc)"/><circle cx="7836" cy="1509" r="150" fill="url(#bd)"/><circle cx="8067" cy="1696" r="150" fill="url(#be)"/><circle cx="8287" cy="1898" r="150" fill="url(#bf)"/><circle cx="8494" cy="2115" r="150" fill="url(#bg)"/><circle cx="8685" cy="2343" r="150" fill="url(#bh)"/><circle cx="8860" cy="2586" r="150" fill="url(#bi)"/><circle cx="9019" cy="2838" r="150" fill="url(#bj)"/><circle cx="9162" cy="3101" r="150" fill="url(#bk)"/><circle cx="9287" cy="3373" r="150" fill="url(#bl)"/><circle cx="9394" cy="3652" r="150" fill="url(#bm)"/></g></svg>