<?xml version="1.0" encoding="iso-8859-1"?>
<!-- Generator: Adobe Illustrator 18.1.1, SVG Export Plug-In . SVG Version: 6.00 Build 0)  -->
<svg version="1.1" id="Capa_1" xmlns="http://www.w3.org/2000/svg" xmlns:xlink="http://www.w3.org/1999/xlink" x="0px" y="0px"
	 viewBox="0 0 475.721 475.721" style="enable-background:new 0 0 475.721 475.721;" xml:space="preserve">
<g>
	<polygon style="fill:#010002;" points="152.036,416.118 0,466.794 0,182.879 152.036,132.202 	"/>
	<path style="fill:#010002;" d="M313.875,466.794l-152.03-50.677V132.202l29.512,9.839c20.55,52.186,68.171,118.574,79.783,134.38
		l3.324,4.517c1.999,2.739,5.221,4.368,8.61,4.368c3.395,0,6.605-1.629,8.592-4.344l3.341-4.541
		c2.375-3.228,9.559-13.109,18.867-26.815V466.794z"/>
	<path style="fill:#010002;" d="M475.715,416.118l-152.03,50.677V234.898c12.405-18.963,26.594-42.078,38.134-64.735l113.902-37.967
		v283.922H475.715z"/>
	<g>
		<path style="fill:#010002;" d="M283.068,74.61c-19.894,0-36.082,16.188-36.082,36.082s16.188,36.082,36.082,36.082
			c19.9,0,36.082-16.188,36.082-36.082S302.962,74.61,283.068,74.61z"/>
		<path style="fill:#010002;" d="M283.068,8.926c-51.536,0-93.465,41.929-93.465,93.465c0,8.688,2.56,19.327,6.766,30.974
			c1.396,3.867,2.977,7.846,4.708,11.91c22.191,52.001,69.478,117.219,76.316,126.533l3.336,4.529
			c1.086,1.498,3.604,1.474,4.666,0.024l3.347-4.553c2.87-3.902,12.865-17.644,25.132-36.106c3.15-4.738,6.444-9.78,9.81-15.054
			c9.29-14.559,19.094-30.819,27.704-47.007c2.22-4.171,4.362-8.336,6.391-12.471c10.961-22.28,18.754-43.493,18.754-58.78
			C376.533,50.856,334.604,8.926,283.068,8.926z M283.068,154.542c-24.178,0-43.851-19.673-43.851-43.851
			s19.673-43.851,43.851-43.851c24.178,0,43.851,19.673,43.856,43.851C326.925,134.869,307.252,154.542,283.068,154.542z"/>
	</g>
</g>
<g>
</g>
<g>
</g>
<g>
</g>
<g>
</g>
<g>
</g>
<g>
</g>
<g>
</g>
<g>
</g>
<g>
</g>
<g>
</g>
<g>
</g>
<g>
</g>
<g>
</g>
<g>
</g>
<g>
</g>
</svg>
